<svg xmlns="http://www.w3.org/2000/svg" width="22.443" height="22.439" viewBox="131 361 22.443 22.439"><g data-name="add-cart"><path d="M151.195 364.74h-3.74a.748.748 0 0 0 0 1.496h3.74a.748.748 0 0 1 .735.903l-1.571 6.013a.748.748 0 0 1-.72.564h-11.316l-1.76-7.48h4.909a.748.748 0 1 0 0-1.496h-5.26l-.745-3.163a.748.748 0 0 0-.727-.577h-2.992a.748.748 0 0 0 0 1.496h2.399l2.644 11.239a2.24 2.24 0 0 0-2.051 2.224 2.263 2.263 0 0 0 2.244 2.244h12.715a.748.748 0 1 0 0-1.496h-12.715a.762.762 0 0 1-.748-.748c0-.413.335-.748.748-.748h12.655a2.244 2.244 0 0 0 2.17-1.68l1.576-6.035a2.248 2.248 0 0 0-2.19-2.756Z" fill="#3b63a9" fill-rule="evenodd" data-name="Path 45"/><path d="M147.455 378.951a2.244 2.244 0 1 0 0 4.488 2.244 2.244 0 0 0 0-4.488Zm0 2.992a.748.748 0 1 1 0-1.496.748.748 0 0 1 0 1.496Z" fill="#3b63a9" fill-rule="evenodd" data-name="Path 46"/><path d="M139.228 378.951a2.244 2.244 0 1 0 0 4.488 2.244 2.244 0 0 0 0-4.488Zm0 2.992a.748.748 0 1 1 0-1.496.748.748 0 0 1 0 1.496Z" fill="#3b63a9" fill-rule="evenodd" data-name="Path 47"/><path d="M144.463 363.244a.748.748 0 0 0-.747.748v4.178l-.22-.22a.748.748 0 1 0-1.057 1.059l1.496 1.495a.758.758 0 0 0 1.059 0l1.496-1.495a.748.748 0 1 0-1.058-1.058l-.22.219v-4.178a.748.748 0 0 0-.749-.748Z" fill="#3b63a9" fill-rule="evenodd" data-name="Path 48"/></g></svg>