<svg xmlns="http://www.w3.org/2000/svg" width="24.809" height="26.61" viewBox="258.746 769.633 24.809 26.61"><path d="m278.777 780.56-8.018 9.902a4.43 4.43 0 0 1-6.232.655 4.43 4.43 0 0 1-.655-6.233l8.715-10.762a2.77 2.77 0 0 1 4.304 3.486l-7.32 9.04a1.111 1.111 0 0 1-1.558.164 1.111 1.111 0 0 1-.164-1.558l6.623-8.18-1.291-1.045-6.623 8.18a2.77 2.77 0 0 0 4.304 3.485l7.32-9.04a4.43 4.43 0 0 0-.654-6.233 4.43 4.43 0 0 0-6.233.655l-8.715 10.762a6.09 6.09 0 0 0 .901 8.57 6.09 6.09 0 0 0 8.57-.9l8.017-9.902-1.29-1.045Z" fill="#b4b4b4" fill-rule="evenodd" data-name="Icon material-attach-file"/></svg>