<svg xmlns="http://www.w3.org/2000/svg" width="26.005" height="25.769" viewBox="106.5 311.752 26.005 25.769"><g data-name="g7002"><g data-name="g7004"><g data-name="g7006" transform="translate(106.107 311.242)" clip-path="url(&quot;#a&quot;)"><g data-name="g7012"><path d="M12.217 17.123H1.177a.787.787 0 0 1-.785-.785v-5.886c0-.432.354-.785.785-.785h24.435c.432 0 .785.353.785.785v5.886a.787.787 0 0 1-.785.785h-11.04m-.785 0h-.785" stroke-linejoin="round" stroke-linecap="round" stroke="#3b63a9" fill="transparent" data-name="path7014"/></g><g data-name="g7016"><path d="m2.313 9.667-.077-2.715 3.062-1.654 1.654-3.062 3.48.099L13.394.51l2.963 1.825 3.479-.099 1.654 3.062 3.062 1.654-.077 2.715m0 7.456.077 2.714-3.062 1.654-1.654 3.062-3.479-.099-2.963 1.825-2.964-1.825-3.479.1-1.654-3.063-3.062-1.654.077-2.714" stroke-linejoin="round" stroke-linecap="round" stroke="#3b63a9" fill="transparent" data-name="path7018"/></g><g data-name="g7020"><path d="M8.553 5.316a9.42 9.42 0 0 1 13.493 4.351m-17.302 0a9.453 9.453 0 0 1 3.15-3.918m14.152 11.374a9.42 9.42 0 0 1-8.651 5.69 9.42 9.42 0 0 1-8.651-5.69" stroke-linejoin="round" stroke-linecap="round" stroke="#3b63a9" fill="transparent" data-name="path7022"/></g><g data-name="g7024"><path d="M17.711 7.508v-.784m-1.57 0v-.785" stroke-linejoin="round" stroke-linecap="round" stroke="#3b63a9" fill="transparent" data-name="path7026"/></g><g data-name="g7028"><path d="m11.759 14.942 1.193-3.133h.134l1.182 3.133" stroke-linejoin="round" stroke-linecap="square" stroke="#3b63a9" fill="transparent" data-name="path7030"/></g><g data-name="g7032"><path d="M12.131 14.162h1.77" stroke-linejoin="bevel" stroke-linecap="round" stroke="#3b63a9" fill="transparent" data-name="path7034"/></g><g data-name="g7036"><path d="M16.72 14.98V11.81h.14l1.963 3.123h.14v-3.13" stroke-linejoin="round" stroke-linecap="square" stroke="#3b63a9" fill="transparent" data-name="path7038"/></g><g data-name="g7040"><path d="M23.394 13.345c0 .85-.472 1.529-1.22 1.542h-.899v-3.084h.873c.821 0 1.246.692 1.246 1.542Z" stroke-linejoin="round" stroke-linecap="square" stroke="#3b63a9" fill="transparent" data-name="path7042"/></g><g data-name="g7044"><path d="M3.553 13.272h.927a.859.859 0 0 1 0 1.715H3.396v-3.178h.923a.731.731 0 0 1 0 1.463" stroke-linejoin="round" stroke-linecap="square" stroke="#3b63a9" fill="transparent" data-name="path7046"/></g><g data-name="g7048"><path d="m8.223 13.67 1.047 1.238" stroke-linejoin="round" stroke-linecap="square" stroke="#3b63a9" fill="transparent" data-name="path7050"/></g><g data-name="g7052"><path d="m7.812 13.464.682-.003c.472 0 .872-.37.872-.826 0-.456-.4-.826-.872-.826h-.845v3.178" stroke-linejoin="round" stroke-linecap="square" stroke="#3b63a9" fill="transparent" data-name="path7054"/></g></g></g></g><defs><clipPath id="a"><path d="M0-682.665h26.79v26.79H0v-26.79Z" data-name="path7008" transform="translate(0 682.665)"/></clipPath></defs></svg>