<svg width="56" height="56" viewBox="0 0 56 56" fill="none" xmlns="http://www.w3.org/2000/svg">
<path d="M52.92 38.5156C49.0933 38.5156 45.3911 37.8933 41.9378 36.7733C40.8489 36.4 39.6356 36.68 38.7956 37.52L33.9111 43.6489C25.1067 39.4489 16.8622 31.5156 12.4756 22.4L18.5422 17.2356C19.3822 16.3644 19.6311 15.1511 19.2889 14.0622C18.1378 10.6089 17.5467 6.90667 17.5467 3.08C17.5467 1.4 16.1467 0 14.4667 0H3.70222C2.02222 0 0 0.746667 0 3.08C0 31.9822 24.0489 56 52.92 56C55.1289 56 56 54.04 56 52.3289V41.5956C56 39.9156 54.6 38.5156 52.92 38.5156Z" fill="#20D994"/>
</svg>
