<svg xmlns="http://www.w3.org/2000/svg" width="10.585" height="10.58" viewBox="38.448 171.71 10.585 10.58"><g data-name="g195"><g data-name="g197"><g data-name="g199" transform="translate(38 171.262)" clip-path="url(&quot;#a&quot;)"><g data-name="g205"><path d="M5.298 8.832h.881m1.769 0h.881m-6.176 0h.881m1.764-2.645h.881m1.769 0h.881m-6.176 0h.881M.448 3.975h10.586M2.217 11.03h7.048c.977 0 1.769-.792 1.769-1.769V3.098c0-.976-.792-1.768-1.769-1.768H2.217c-.977 0-1.769.792-1.769 1.768V9.26c0 .977.792 1.769 1.769 1.769Zm6.172-8.376V.448M3.093 2.653V.448" stroke-linejoin="round" stroke-linecap="round" stroke-width=".75" stroke="#3b63a9" fill="transparent" data-name="path207"/></g></g></g></g><defs><clipPath id="a"><path d="M0-682.665h11.477v11.477H0v-11.477Z" data-name="path201" transform="translate(0 682.665)"/></clipPath></defs></svg>