<svg xmlns="http://www.w3.org/2000/svg" width="14.179" height="14.172" viewBox="141.586 103.565 14.179 14.172"><g data-name="g195"><g data-name="g197"><g data-name="g199" transform="translate(140.986 102.964)" clip-path="url(&quot;#a&quot;)"><g data-name="g205"><path d="M7.096 11.83h1.181m2.37 0h1.18m-8.274 0h1.181m2.362-3.543h1.181m2.37 0h1.18m-8.274 0h1.181M.601 5.325H14.78M2.97 14.773h9.44a2.369 2.369 0 0 0 2.37-2.369V4.151a2.369 2.369 0 0 0-2.37-2.37H2.97A2.369 2.369 0 0 0 .6 4.152v8.253a2.369 2.369 0 0 0 2.37 2.369Zm8.267-11.22V.601M4.144 3.553V.601" stroke-linejoin="round" stroke-linecap="round" stroke-width=".75" stroke="#3b63a9" fill="transparent" data-name="path207"/></g></g></g></g><defs><clipPath id="a"><path d="M0-682.665h15.374v15.373H0v-15.373Z" data-name="path201" transform="translate(0 682.665)"/></clipPath></defs></svg>