<svg xmlns="http://www.w3.org/2000/svg" width="15.513" height="15.513" viewBox="57.89 260.243 15.513 15.513"><g data-name="clock"><path d="M65.647 260.243c-4.277 0-7.757 3.48-7.757 7.757 0 4.277 3.48 7.757 7.757 7.757 4.277 0 7.757-3.48 7.757-7.757 0-4.277-3.48-7.757-7.757-7.757Zm0 14.544A6.795 6.795 0 0 1 58.86 268a6.795 6.795 0 0 1 6.787-6.787A6.795 6.795 0 0 1 72.434 268a6.795 6.795 0 0 1-6.787 6.787Z" fill="#6e6e6e" fill-rule="evenodd" data-name="Path 62011"/><path d="M66.132 263.152h-.97v5.049l3.05 3.05.686-.685-2.766-2.767v-4.647Z" fill="#6e6e6e" fill-rule="evenodd" data-name="Path 62012"/></g></svg>