<svg xmlns="http://www.w3.org/2000/svg" width="27.242" height="23.525" viewBox="309.365 314.235 27.242 23.525"><g data-name="g4558"><path d="M315.557 321.34a.62.62 0 0 0-.62.619v1.345a.62.62 0 0 0 1.239 0v-1.345a.62.62 0 0 0-.62-.62Z" fill="#3b63a9" fill-rule="evenodd" data-name="path4533"/><path d="M315.557 324.703a.62.62 0 0 0-.62.619v1.345a.62.62 0 0 0 1.239 0v-1.345a.62.62 0 0 0-.62-.62Z" fill="#3b63a9" fill-rule="evenodd" data-name="path4543"/><path d="M315.557 328.066a.62.62 0 0 0-.62.619v1.345a.62.62 0 0 0 1.239 0v-1.345a.62.62 0 0 0-.62-.62Z" fill="#3b63a9" fill-rule="evenodd" data-name="path4545"/><path d="M313.617 314.235a1.87 1.87 0 0 0-1.618 1.267l-.824 2.49a1.974 1.974 0 0 0-1.81 1.954v2.463a.62.62 0 0 0 .43.589c.772.249 1.428 1.22 1.428 2.407 0 1.189-.656 2.16-1.428 2.41a.62.62 0 0 0-.43.588v3.7c0 1.081.89 1.97 1.97 1.97h9.775l10.512 3.59a1.86 1.86 0 0 0 2.352-1.178l.803-2.426a1.974 1.974 0 0 0 1.83-1.955v-3.702a.62.62 0 0 0-.429-.589c-.772-.25-1.427-1.22-1.428-2.408 0-1.188.656-2.16 1.428-2.408a.62.62 0 0 0 .43-.59v-2.461c0-1.081-.89-1.97-1.97-1.97h-9.772l-10.511-3.652c-.243-.085-.509-.075-.738-.089Zm.09 1.23a.651.651 0 0 1 .249.032l7.134 2.479h-8.606l.69-2.086a.603.603 0 0 1 .534-.426Zm-2.372 3.749h3.603v.589a.62.62 0 0 0 1.238 0v-.589h18.462c.416 0 .731.315.731.732v2.107c-1.143.603-1.857 1.901-1.857 3.352 0 1.451.714 2.75 1.857 3.351v3.348a.717.717 0 0 1-.731.731h-18.463c.003-.214.001-.433.001-.65a.62.62 0 0 0-1.238 0c-.001.216 0 .438.001.65h-3.604a.717.717 0 0 1-.731-.731v-3.347c1.143-.602 1.857-1.9 1.857-3.352 0-1.45-.714-2.748-1.857-3.35v-2.11c0-.416.315-.731.731-.731Zm13.607 14.86h8.525l-.668 2.021a.602.602 0 0 1-.777.396l-7.08-2.418Z" fill="#3b63a9" fill-rule="evenodd" data-name="path4501"/><path d="M328.412 326.963c1.102 0 2.008.907 2.008 2.009 0 1.102-.906 2.01-2.008 2.01a2.02 2.02 0 0 1-2.01-2.01c0-1.102.907-2.009 2.01-2.009Zm0 1.239a.762.762 0 0 0-.772.77c0 .433.339.771.772.771s.77-.338.77-.771a.76.76 0 0 0-.77-.77Z" fill="#3b63a9" fill-rule="evenodd" data-name="circle4507"/><path d="M322.516 321.068c1.102 0 2.008.906 2.008 2.008a2.018 2.018 0 0 1-2.008 2.009 2.019 2.019 0 0 1-2.01-2.009c0-1.102.908-2.008 2.01-2.008Zm0 1.238a.762.762 0 0 0-.772.77c0 .433.339.77.772.77a.76.76 0 0 0 .77-.77.76.76 0 0 0-.77-.77Z" fill="#3b63a9" fill-rule="evenodd" data-name="circle4509"/><path d="m327.974 322.639-5.897 5.896a.62.62 0 0 0 .876.875l5.896-5.896a.62.62 0 0 0 0-.875c-.253-.225-.637-.249-.875 0Z" fill="#3b63a9" fill-rule="evenodd" data-name="path1852"/></g></svg>