<svg xmlns="http://www.w3.org/2000/svg" width="29.876" height="29.876" viewBox="358.563 377.562 29.876 29.876"><g data-name="cancel-button"><g data-name="Group 69571"><path d="M373.501 377.562c-8.237 0-14.938 6.701-14.938 14.938 0 8.237 6.701 14.938 14.938 14.938 8.237 0 14.938-6.701 14.938-14.938 0-8.237-6.701-14.938-14.938-14.938Zm0 27.427c-6.887 0-12.49-5.602-12.49-12.489 0-6.887 5.603-12.49 12.49-12.49 6.887 0 12.49 5.603 12.49 12.49 0 6.887-5.603 12.49-12.49 12.49Z" fill="#967BB6" fill-rule="evenodd" data-name="Path 62009"/><path d="m375.233 392.5 4.225-4.225a1.224 1.224 0 1 0-1.732-1.731l-4.225 4.224-4.225-4.224a1.225 1.225 0 0 0-1.731 1.731l4.224 4.225-4.224 4.225a1.225 1.225 0 0 0 1.731 1.732l4.225-4.225 4.225 4.225a1.221 1.221 0 0 0 1.732 0 1.224 1.224 0 0 0 0-1.732l-4.225-4.225Z" fill="#967BB6" fill-rule="evenodd" data-name="Path 62010"/></g></g></svg>