<svg xmlns="http://www.w3.org/2000/svg" width="26.622" height="26.622" viewBox="128.703 250.905 26.622 26.622"><g data-name="currency"><path d="M137.901 258.477h-1.696a.742.742 0 0 1 0-1.483h1.636c.291.003.58.134.791.36a.783.783 0 0 0 1.143-1.07 2.684 2.684 0 0 0-1.925-.856h-.014v-.695a.783.783 0 0 0-1.566 0v.695c-1.421 0-2.371 1.09-2.371 2.308a2.31 2.31 0 0 0 2.306 2.307h1.696a.742.742 0 0 1 0 1.482h-1.783a1.121 1.121 0 0 1-.617-.21.783.783 0 1 0-.893 1.287c.564.392 1.072.489 1.662.489v.696a.783.783 0 0 0 1.566 0v-.696c1.431 0 2.372-1.1 2.372-2.307a2.31 2.31 0 0 0-2.307-2.307Z" fill="#3b63a9" fill-rule="evenodd" data-name="Path 2853"/><path d="M145.221 261.004c1.11-5.222-2.891-10.099-8.168-10.099-4.604 0-8.35 3.748-8.35 8.355 0 5.28 4.878 9.288 10.104 8.17-1.108 5.203 2.875 10.097 8.167 10.097 4.604 0 8.35-3.748 8.35-8.355 0-5.278-4.877-9.29-10.103-8.168Zm-14.952-1.744c0-3.743 3.043-6.789 6.784-6.789 4.71 0 8.003 4.719 6.365 9.143a8.405 8.405 0 0 0-4.003 4.012c-4.421 1.645-9.146-1.646-9.146-6.366Zm16.705 16.701c-3.741 0-6.784-3.045-6.784-6.789 0-3.743 3.043-6.788 6.784-6.788 3.74 0 6.784 3.045 6.784 6.788 0 3.744-3.043 6.789-6.784 6.789Z" fill="#3b63a9" fill-rule="evenodd" data-name="Path 2854"/><path d="M149.646 271.918a8.082 8.082 0 0 0-3.361-.33c.158-.486.27-.986.334-1.493h.939a.783.783 0 0 0 0-1.566h-.892c-.016-.247-.026-.318-.092-.923-.11-1.002 1.134-1.538 1.793-.795a.783.783 0 1 0 1.172-1.04c-1.662-1.874-4.798-.515-4.522 2.006.071.644.066.586.079.752h-.557a.783.783 0 0 0 0 1.566h.498c-.12.762-.374 1.5-.757 2.188-.338.607.227 1.324.896 1.135 1.326-.373 2.562-.463 3.996-.008a.783.783 0 1 0 .474-1.492Z" fill="#3b63a9" fill-rule="evenodd" data-name="Path 2855"/><path d="M148.147 253.368c1.534 0 3.165 1.158 3.165 3.305v.738l-.705-.706a.783.783 0 0 0-1.108 1.107l2.042 2.043c.303.303.8.308 1.108 0l2.042-2.043a.783.783 0 0 0-1.108-1.107l-.705.706v-.738c0-2.848-2.164-4.871-4.731-4.871a.783.783 0 1 0 0 1.566Z" fill="#3b63a9" fill-rule="evenodd" data-name="Path 2856"/><path d="M135.88 275.065c-1.534 0-3.165-1.159-3.165-3.306v-.737l.705.705a.783.783 0 1 0 1.108-1.107l-2.042-2.043a.784.784 0 0 0-1.108 0l-2.042 2.043a.783.783 0 1 0 1.108 1.107l.705-.705v.737c0 2.849 2.164 4.872 4.731 4.872a.783.783 0 0 0 0-1.566Z" fill="#3b63a9" fill-rule="evenodd" data-name="Path 2857"/></g></svg>