<svg xmlns="http://www.w3.org/2000/svg" width="19.275" height="19.275" viewBox="246.967 259.363 19.275 19.275"><g data-name="Group 69584"><g data-name="g607"><path d="M262.162 260.562h-13.596a1.6 1.6 0 0 0-1.6 1.6v2.4h16.796v-2.4a1.6 1.6 0 0 0-1.6-1.6Z" stroke-linejoin="round" stroke-linecap="round" stroke="#6e6e6e" fill="transparent" data-name="path609"/></g><g data-name="g611"><g data-name="path613"><path d="M250.326 261.762v-2.4" fill="#706561" fill-rule="evenodd"/><path d="M250.326 261.762v-2.4" stroke-linejoin="round" stroke-linecap="round" stroke="#6e6e6e" fill="transparent"/></g></g><g data-name="g615"><g data-name="path617"><path d="M260.403 261.762v-2.4" fill="#706561" fill-rule="evenodd"/><path d="M260.403 261.762v-2.4" stroke-linejoin="round" stroke-linecap="round" stroke="#6e6e6e" fill="transparent"/></g></g><g data-name="g619"><g data-name="path621"><path d="M257.044 261.762v-2.4" fill="#706561" fill-rule="evenodd"/><path d="M257.044 261.762v-2.4" stroke-linejoin="round" stroke-linecap="round" stroke="#6e6e6e" fill="transparent"/></g></g><g data-name="g623"><g data-name="path625"><path d="M253.685 261.762v-2.4" fill="#706561" fill-rule="evenodd"/><path d="M253.685 261.762v-2.4" stroke-linejoin="round" stroke-linecap="round" stroke="#6e6e6e" fill="transparent"/></g></g><g data-name="g627"><g data-name="path629"><path d="M256.644 267.26h1" fill="#706561" fill-rule="evenodd"/><path d="M256.644 267.26h1" stroke-linejoin="round" stroke-linecap="round" stroke="#6e6e6e" fill="transparent"/></g></g><g data-name="g631"><g data-name="path633"><path d="M253.085 267.26h1" fill="#706561" fill-rule="evenodd"/><path d="M253.085 267.26h1" stroke-linejoin="round" stroke-linecap="round" stroke="#6e6e6e" fill="transparent"/></g></g><g data-name="g635"><g data-name="path637"><path d="M260.203 267.26h1" fill="#706561" fill-rule="evenodd"/><path d="M260.203 267.26h1" stroke-linejoin="round" stroke-linecap="round" stroke="#6e6e6e" fill="transparent"/></g></g><g data-name="g639"><g data-name="path641"><path d="M249.526 269.96h1" fill="#706561" fill-rule="evenodd"/><path d="M249.526 269.96h1" stroke-linejoin="round" stroke-linecap="round" stroke="#6e6e6e" fill="transparent"/></g></g><g data-name="g643"><g data-name="path645"><path d="M253.085 269.96h1" fill="#706561" fill-rule="evenodd"/><path d="M253.085 269.96h1" stroke-linejoin="round" stroke-linecap="round" stroke="#6e6e6e" fill="transparent"/></g></g><g data-name="g647"><g data-name="path649"><path d="M256.644 269.96h1" fill="#706561" fill-rule="evenodd"/><path d="M256.644 269.96h1" stroke-linejoin="round" stroke-linecap="round" stroke="#6e6e6e" fill="transparent"/></g></g><g data-name="g651"><g data-name="path653"><path d="M249.526 272.659h1" fill="#706561" fill-rule="evenodd"/><path d="M249.526 272.659h1" stroke-linejoin="round" stroke-linecap="round" stroke="#6e6e6e" fill="transparent"/></g></g><g data-name="g655"><g data-name="path657"><path d="M253.085 272.659h1" fill="#706561" fill-rule="evenodd"/><path d="M253.085 272.659h1" stroke-linejoin="round" stroke-linecap="round" stroke="#6e6e6e" fill="transparent"/></g></g><g data-name="g659"><path d="M266.241 274.238a4.399 4.399 0 1 1-8.797 0 4.399 4.399 0 0 1 8.797 0Z" stroke-linejoin="round" stroke-linecap="round" stroke="#6e6e6e" fill="transparent" data-name="path661"/></g><g data-name="g663"><path d="M261.843 272.24v1.999h1.999" stroke-linejoin="round" stroke-linecap="round" stroke="#6e6e6e" fill="transparent" data-name="path665"/></g><g data-name="g667"><path d="M263.762 270.28v-5.719h-16.795v9.598a1.2 1.2 0 0 0 1.2 1.2h9.42" stroke-linejoin="round" stroke-linecap="round" stroke="#6e6e6e" fill="transparent" data-name="path669"/></g></g></svg>