<svg xmlns="http://www.w3.org/2000/svg" width="18" height="18" viewBox="290 193.95 18 18"><g data-name="Group 69687"><path d="M290 202.9a9 9 0 1 1 0 .1z" fill="#006933" fill-rule="evenodd" data-name="Ellipse 43"/><g data-name="delete (1)"><path d="M302.122 201.047c-.246 0-.446.2-.446.446v4.991a.856.856 0 0 1-.897.807h-3.559a.856.856 0 0 1-.896-.807v-4.99a.446.446 0 0 0-.892 0v4.99a1.747 1.747 0 0 0 1.788 1.7h3.56a1.747 1.747 0 0 0 1.788-1.7v-4.99c0-.247-.2-.447-.446-.447Z" fill="#fffcfc" fill-rule="evenodd" data-name="Path 2800"/><path d="M302.568 199.71h-1.784v-.893c0-.246-.2-.446-.446-.446h-2.676c-.246 0-.446.2-.446.446v.892h-1.784a.446.446 0 0 0 0 .892h7.136a.446.446 0 1 0 0-.892Zm-4.46 0v-.447h1.784v.446h-1.784Z" fill="#fffcfc" fill-rule="evenodd" data-name="Path 2801"/><path d="M298.554 205.507v-3.122a.446.446 0 1 0-.892 0v3.122a.446.446 0 1 0 .892 0Z" fill="#fffcfc" fill-rule="evenodd" data-name="Path 2802"/><path d="M300.338 205.507v-3.122a.446.446 0 0 0-.892 0v3.122a.446.446 0 1 0 .892 0Z" fill="#fffcfc" fill-rule="evenodd" data-name="Path 2803"/></g></g></svg>