<svg xmlns="http://www.w3.org/2000/svg" width="13.359" height="9.262" viewBox="38 316.369 13.359 9.262"><g data-name="delivery"><g data-name="Group 69608"><g data-name="Group 69607"><path d="M48.09 322.263c-.93 0-1.684.755-1.684 1.684 0 .928.755 1.684 1.683 1.684.93 0 1.684-.756 1.684-1.684 0-.929-.755-1.684-1.684-1.684Zm0 2.526a.843.843 0 1 1 .001-1.686.843.843 0 0 1-.002 1.686Z" fill="#3b63a9" fill-rule="evenodd" data-name="Path 2827"/></g></g><g data-name="Group 69610"><g data-name="Group 69609"><path d="M42.336 322.263c-.928 0-1.684.755-1.684 1.684 0 .928.756 1.684 1.684 1.684.929 0 1.684-.756 1.684-1.684 0-.929-.755-1.684-1.684-1.684Zm0 2.526a.843.843 0 1 1 .002-1.686.843.843 0 0 1-.002 1.686Z" fill="#3b63a9" fill-rule="evenodd" data-name="Path 2828"/></g></g><g data-name="Group 69612"><g data-name="Group 69611"><path d="M49.223 317.443a.421.421 0 0 0-.376-.232H46.63v.842h1.958l1.146 2.28.752-.378-1.263-2.512Z" fill="#3b63a9" fill-rule="evenodd" data-name="Path 2829"/></g></g><g data-name="Group 69614"><g data-name="Group 69613"><path d="M43.641 323.54h3.186v.842H43.64v-.842z" fill="#3b63a9" fill-rule="evenodd" data-name="Rectangle 519"/></g></g><g data-name="Group 69616"><g data-name="Group 69615"><path d="M41.073 323.54h-1.46a.42.42 0 1 0 0 .842h1.46a.42.42 0 1 0 0-.842Z" fill="#3b63a9" fill-rule="evenodd" data-name="Path 2830"/></g></g><g data-name="Group 69618"><g data-name="Group 69617"><path d="m51.27 320.966-.827-1.066a.42.42 0 0 0-.333-.163h-3.059v-2.947a.42.42 0 0 0-.42-.42h-7.017a.42.42 0 1 0 0 .841h6.595v2.947a.42.42 0 0 0 .421.421h3.274l.613.79v2.17h-1.165a.42.42 0 1 0 0 .843h1.586a.421.421 0 0 0 .421-.421v-2.736a.422.422 0 0 0-.088-.259Z" fill="#3b63a9" fill-rule="evenodd" data-name="Path 2831"/></g></g><g data-name="Group 69620"><g data-name="Group 69619"><path d="M41.045 321.407H39.11a.42.42 0 1 0 0 .842h1.936a.42.42 0 1 0 0-.842Z" fill="#3b63a9" fill-rule="evenodd" data-name="Path 2832"/></g></g><g data-name="Group 69622"><g data-name="Group 69621"><path d="M42.013 319.751h-3.592a.421.421 0 1 0 0 .842h3.592a.42.42 0 1 0 0-.842Z" fill="#3b63a9" fill-rule="evenodd" data-name="Path 2833"/></g></g><g data-name="Group 69624"><g data-name="Group 69623"><path d="M42.7 318.095H39.11a.42.42 0 1 0 0 .842H42.7a.42.42 0 1 0 0-.842Z" fill="#3b63a9" fill-rule="evenodd" data-name="Path 2834"/></g></g></g></svg>