<svg width="70" height="70" viewBox="0 0 81 87" fill="none" xmlns="http://www.w3.org/2000/svg">
<path d="M23.8897 3.08605C22.3141 4.5367 21.222 6.72627 20.4994 10.2307C20.8308 10.1274 21.1405 10.0405 21.4991 9.94271C24.5254 9.1386 28.5622 8.62789 33.05 8.62789C37.5378 8.62789 41.5801 9.1386 44.601 9.94271C44.9704 10.0405 45.2747 10.122 45.6115 10.2252C44.8944 6.71541 43.8186 4.5367 42.2375 3.08605C40.3631 1.36916 37.4726 0.472686 33.0555 0C28.6383 0.47812 25.7641 1.37459 23.8897 3.09691V3.08605ZM22.2326 12.7136C21.1799 12.9596 20.1642 13.3432 19.2117 13.8546C19.009 13.959 18.8254 14.0967 18.6684 14.2621V14.3816C18.9401 14.5338 19.4616 14.7619 20.1354 14.9738C21.5045 15.3976 23.4496 15.8051 25.3947 16.1528C27.9371 16.5901 30.4918 16.9524 33.0555 17.2395C33.213 17.2286 36.8967 16.8211 40.7054 16.1528C42.6559 15.8051 44.601 15.4031 45.9701 14.9738C46.6438 14.7565 47.1654 14.5392 47.4371 14.3762V14.2621C47.4371 14.2621 47.3556 14.1426 46.8938 13.86C45.9398 13.3465 44.9223 12.961 43.8675 12.7136C41.1726 11.9965 37.3151 11.4912 33.0555 11.4912C28.7904 11.4912 24.9329 11.9965 22.2326 12.7136ZM45.9973 17.9458C44.4169 18.3658 42.8178 18.7121 41.2052 18.9835C37.1847 19.6898 33.2022 20.1191 33.2022 20.1191H32.8979C32.8979 20.1191 28.9154 19.6898 24.9003 18.9835C23.2897 18.7134 21.6924 18.3689 20.1136 17.9512V23.7267C20.1136 31.0343 25.9054 36.8587 33.05 36.8587C33.5607 36.8587 34.028 36.8315 34.5224 36.7772C34.8049 33.8922 37.239 31.6211 40.2381 31.6211H43.4111C45.0356 29.4261 45.9973 26.7095 45.9973 23.7267V17.9458ZM14.3653 23.3246C14.3762 25.2154 15.6095 26.5193 16.8918 26.5193C17.0873 26.5193 17.2721 26.4976 17.4622 26.4433C17.3133 25.5454 17.2388 24.6368 17.2395 23.7267V20.1517C17.1249 20.1295 17.0084 20.1186 16.8918 20.1191C15.6095 20.1191 14.3871 21.423 14.3653 23.3246ZM48.8769 23.7267C48.8769 24.6449 48.7899 25.5631 48.6432 26.4433C48.8342 26.4967 49.0318 26.5223 49.23 26.5193C50.4634 26.5248 51.7347 25.2208 51.7402 23.3246C51.7239 21.423 50.4905 20.1191 49.2029 20.1191C49.0942 20.1191 48.9855 20.1354 48.8769 20.1571V23.7267ZM40.2381 34.5007C38.6625 34.5007 37.364 35.7557 37.364 37.3748V43.1286H71.8592V37.3694C71.8599 36.9916 71.7859 36.6173 71.6413 36.2682C71.4967 35.9191 71.2844 35.6021 71.0168 35.3354C70.7491 35.0688 70.4313 34.8577 70.0816 34.7144C69.732 34.5712 69.3575 34.4985 68.9796 34.5007H40.2381ZM24.4276 41.0911L32.523 49.192L34.4898 44.2967V39.6731C30.9484 39.9975 27.4016 39.1127 24.4276 37.1629V41.0911ZM51.7402 37.3694H57.4939C59.4118 37.3694 59.4118 40.249 57.4939 40.249H51.7402C49.8222 40.249 49.8222 37.3694 51.7402 37.3694ZM21.4122 42.1506L17.9893 44.7151L27.4375 54.1688L30.855 51.5989L21.4122 42.1506ZM14.9901 45.7908C6.98707 48.5454 0.13583 56.0595 0.13583 70.4357H12.931V68.9959C12.931 67.078 15.8105 67.078 15.8105 68.9959V74.7497H25.6446C26.0956 74.7877 26.2042 74.478 26.3835 74.1303C26.6443 73.5598 26.8182 72.7177 27.079 71.4734C27.3017 70.3977 27.5408 69.2187 28.1656 68.1429C28.5009 67.5232 29 67.0074 29.6084 66.652C30.2168 66.2965 30.9111 66.115 31.6157 66.1272V54.6252L28.171 57.2059C27.8949 57.4144 27.553 57.5166 27.2078 57.4936C26.8626 57.4707 26.5372 57.3242 26.2911 57.081L14.9901 45.7908ZM36.8967 46.0027L35.1744 50.3112H74.0542L72.3265 46.0027H36.8967ZM34.4898 53.1854V67.5127C35.0277 68.1809 35.3483 68.9688 35.5438 69.7511C35.9622 71.4354 35.9405 73.2501 35.9242 74.7497H41.6725C41.9224 74.7497 42.1506 74.7823 42.3788 74.8529C43.0199 73.0015 44.0713 71.3189 45.4543 69.9312C46.8374 68.5434 48.5163 67.4863 50.3656 66.839C50.2646 66.2222 50.299 65.5909 50.4664 64.9889C50.6338 64.3868 50.9301 63.8283 51.3349 63.3522C51.7397 62.8761 52.2432 62.4937 52.8105 62.2316C53.3778 61.9695 53.9953 61.834 54.6202 61.8344C55.2451 61.8348 55.8625 61.9711 56.4295 62.2339C56.9964 62.4967 57.4995 62.8797 57.9036 63.3564C58.3078 63.833 58.6034 64.3919 58.77 64.9942C58.9366 65.5965 58.9702 66.2278 58.8685 66.8444C60.9412 67.5654 62.7962 68.802 64.2591 70.4378C65.7219 72.0736 66.7443 74.0548 67.2301 76.1949C67.3388 76.184 67.4257 76.184 67.5453 76.184C68.6591 76.184 69.6642 76.5915 70.4249 77.2761C71.0014 76.762 71.7053 76.4122 72.4632 76.2631C73.2211 76.114 74.0051 76.1711 74.7334 76.4285V53.1908L34.4898 53.1854ZM54.6089 64.682C54.227 64.682 53.8608 64.8337 53.5908 65.1037C53.3208 65.3737 53.1691 65.7399 53.1691 66.1218C53.1691 66.5036 53.3208 66.8698 53.5908 67.1399C53.8608 67.4099 54.227 67.5616 54.6089 67.5616C54.9907 67.5616 55.3569 67.4099 55.627 67.1399C55.897 66.8698 56.0487 66.5036 56.0487 66.1218C56.0487 65.7399 55.897 65.3737 55.627 65.1037C55.3569 64.8337 54.9907 64.682 54.6089 64.682ZM29.8879 72.0711C29.6706 73.1143 29.475 74.2444 28.9914 75.3147C28.4373 76.5806 27.4321 77.5097 25.9652 77.6184H14.3708C13.9898 77.6198 13.6239 77.4703 13.353 77.2024C13.0821 76.9346 12.9284 76.5704 12.9255 76.1895V73.3099H0V80.498C0 83.7035 2.56989 86.2463 5.7483 86.2463C17.196 86.2463 31.469 86.23 41.5312 86.2463C41.7163 86.0029 41.8528 85.7262 41.9333 85.4313C42.2484 84.4859 42.4005 83.258 42.4005 81.9378C42.4255 80.7543 42.2679 79.5742 41.9333 78.4388C41.8464 78.1483 41.7144 77.8733 41.5421 77.6238H34.4898C34.1094 77.6238 33.7446 77.4727 33.4756 77.2037C33.2066 76.9347 33.0555 76.5699 33.0555 76.1895C33.0555 74.1574 33.1152 71.8809 32.7512 70.4357C32.6638 70.0046 32.4819 69.5983 32.2187 69.2458C32.0449 69.0557 31.8928 69.0014 31.6102 69.0014C31.1919 69.0014 30.9365 69.0992 30.6486 69.599C30.29 70.2184 30.1107 71.0279 29.8879 72.0711ZM44.7422 77.124L44.6607 77.5369L44.6879 77.6238H52.8485C53.2487 77.1713 53.7404 76.8089 54.2912 76.5607C54.8419 76.3125 55.4391 76.1841 56.0432 76.184C57.1625 76.184 58.1622 76.5915 58.9228 77.2761C59.7098 76.5684 60.7331 76.1807 61.7915 76.1895C62.7694 76.1831 63.7202 76.5109 64.4864 77.1185C64.1292 75.3081 63.2815 73.6307 62.036 72.2692C60.7904 70.9077 59.1948 69.9145 57.4233 69.398C56.6402 70.0669 55.6442 70.4344 54.6143 70.4344C53.5845 70.4344 52.5884 70.0669 51.8054 69.398C50.0337 69.916 48.4382 70.9103 47.1928 72.2727C45.9473 73.635 45.0997 75.3131 44.7422 77.124ZM79.0745 74.7334C78.8827 74.7305 78.6923 74.7666 78.5149 74.8394C78.3374 74.9123 78.1766 75.0204 78.0422 75.1571L77.6075 75.5918V79.6504L80.0742 77.1946C80.2756 76.9945 80.4134 76.7394 80.4702 76.4612C80.527 76.183 80.5003 75.8943 80.3935 75.6312C80.2866 75.3682 80.1044 75.1426 79.8697 74.9829C79.635 74.8231 79.3584 74.7363 79.0745 74.7334ZM54.6089 80.4925V84.8119C54.6089 85.6323 55.2609 86.2463 56.0432 86.2463C56.2316 86.2477 56.4184 86.212 56.593 86.1413C56.7675 86.0705 56.9265 85.966 57.0607 85.8338C57.1949 85.7017 57.3017 85.5443 57.3751 85.3709C57.4485 85.1974 57.487 85.0111 57.4885 84.8228V80.4817C57.4885 80.2929 57.4509 80.106 57.3781 79.9318C57.3052 79.7577 57.1984 79.5998 57.0639 79.4673C56.9294 79.3349 56.7699 79.2305 56.5947 79.1602C56.4194 79.09 56.232 79.0553 56.0432 79.0582C55.8543 79.056 55.6668 79.0916 55.4917 79.1629C55.3167 79.2342 55.1577 79.3398 55.0241 79.4734C54.8905 79.607 54.7849 79.766 54.7136 79.941C54.6423 80.1161 54.6067 80.3036 54.6089 80.4925ZM61.7915 79.0582C61.6035 79.0567 61.417 79.0927 61.243 79.164C61.069 79.2353 60.9109 79.3405 60.7779 79.4735C60.6449 79.6064 60.5397 79.7645 60.4684 79.9386C60.3971 80.1126 60.3612 80.299 60.3626 80.4871V84.8228C60.3612 85.0106 60.3972 85.1968 60.4685 85.3705C60.5399 85.5442 60.6452 85.702 60.7782 85.8345C60.9113 85.967 61.0694 86.0717 61.2434 86.1424C61.4174 86.2131 61.6037 86.2484 61.7915 86.2463C61.9808 86.2477 62.1685 86.2117 62.3438 86.1402C62.5191 86.0688 62.6785 85.9633 62.8128 85.83C62.9472 85.6967 63.0538 85.5381 63.1265 85.3633C63.1993 85.1886 63.2368 85.0012 63.2368 84.8119V80.4925C63.2368 80.3032 63.1993 80.1158 63.1265 79.9411C63.0538 79.7664 62.9472 79.6077 62.8128 79.4744C62.6785 79.3411 62.5191 79.2357 62.3438 79.1642C62.1685 79.0928 61.9808 79.0567 61.7915 79.0582ZM66.1109 80.4925V84.8119C66.1109 85.6323 66.7629 86.2463 67.5453 86.2463C67.9247 86.2477 68.2893 86.0987 68.5592 85.8319C68.8291 85.5651 68.9822 85.2022 68.9851 84.8228V80.4817C68.9851 80.2934 68.9477 80.1069 68.8752 79.9331C68.8026 79.7593 68.6963 79.6017 68.5624 79.4693C68.4285 79.3369 68.2696 79.2324 68.095 79.1618C67.9204 79.0912 67.7336 79.056 67.5453 79.0582C67.3563 79.056 67.1688 79.0916 66.9938 79.1629C66.8188 79.2342 66.6598 79.3398 66.5262 79.4734C66.3925 79.607 66.287 79.766 66.2156 79.941C66.1443 80.1161 66.1087 80.3036 66.1109 80.4925ZM71.8646 80.4871V84.8228C71.8632 85.0106 71.8992 85.1968 71.9706 85.3705C72.0419 85.5442 72.1472 85.702 72.2803 85.8345C72.4133 85.967 72.5714 86.0717 72.7454 86.1424C72.9194 86.2131 73.1058 86.2484 73.2936 86.2463C73.4828 86.2477 73.6705 86.2117 73.8458 86.1402C74.0211 86.0688 74.1805 85.9633 74.3148 85.83C74.4492 85.6967 74.5558 85.5381 74.6286 85.3633C74.7013 85.1886 74.7388 85.0012 74.7388 84.8119V80.4817C74.7381 80.2931 74.7001 80.1065 74.6269 79.9327C74.5538 79.7589 74.4469 79.6013 74.3126 79.469C74.1783 79.3366 74.019 79.2322 73.8441 79.1617C73.6693 79.0912 73.4821 79.056 73.2936 79.0582C73.1055 79.0567 72.9191 79.0927 72.745 79.164C72.571 79.2353 72.4129 79.3405 72.2799 79.4735C72.147 79.6064 72.0418 79.7645 71.9705 79.9386C71.8992 80.1126 71.8632 80.299 71.8646 80.4871ZM45.204 80.498C45.2804 81.4563 45.2804 82.4192 45.204 83.3775H51.7347V80.498H45.204Z" fill="#20D994"/>
</svg>
