<svg xmlns="http://www.w3.org/2000/svg" width="27" height="19.9" viewBox="219.271 112.689 27.484 19.054"><g data-name="delivery"><g data-name="Group 1254"><g data-name="Group 1253"><path d="M240.029 124.814a3.468 3.468 0 0 0-3.465 3.465 3.468 3.468 0 0 0 3.465 3.464 3.468 3.468 0 0 0 3.464-3.464 3.468 3.468 0 0 0-3.464-3.465Zm0 5.197a1.734 1.734 0 0 1-1.732-1.732c0-.956.776-1.732 1.732-1.732.955 0 1.732.776 1.732 1.732 0 .955-.777 1.732-1.732 1.732Z" fill="#3b63a9" fill-rule="evenodd" data-name="Path 1612"/></g></g><g data-name="Group 1256"><g data-name="Group 1255"><path d="M228.192 124.814a3.468 3.468 0 0 0-3.464 3.465 3.468 3.468 0 0 0 3.464 3.464 3.468 3.468 0 0 0 3.465-3.464 3.468 3.468 0 0 0-3.465-3.465Zm0 5.197a1.734 1.734 0 0 1-1.732-1.732c0-.956.777-1.732 1.732-1.732s1.732.776 1.732 1.732c0 .955-.777 1.732-1.732 1.732Z" fill="#3b63a9" fill-rule="evenodd" data-name="Path 1613"/></g></g><g data-name="Group 1258"><g data-name="Group 1257"><path d="M242.362 114.898a.867.867 0 0 0-.774-.477h-4.562v1.732h4.028l2.358 4.691 1.548-.778-2.598-5.168Z" fill="#3b63a9" fill-rule="evenodd" data-name="Path 1614"/></g></g><g data-name="Group 1260"><g data-name="Group 1259"><path d="M230.877 127.442h6.554v1.732h-6.554v-1.732z" fill="#3b63a9" fill-rule="evenodd" data-name="Rectangle 52"/></g></g><g data-name="Group 1262"><g data-name="Group 1261"><path d="M225.594 127.442h-3.003a.866.866 0 1 0 0 1.732h3.003a.866.866 0 1 0 0-1.732Z" fill="#3b63a9" fill-rule="evenodd" data-name="Path 1615"/></g></g><g data-name="Group 1264"><g data-name="Group 1263"><path d="m246.574 122.147-1.704-2.194a.865.865 0 0 0-.684-.335h-6.294v-6.063a.866.866 0 0 0-.866-.866h-14.435a.866.866 0 1 0 0 1.732h13.57v6.063c0 .478.387.866.865.866h6.736l1.261 1.625v4.466h-2.396a.866.866 0 1 0 0 1.733h3.262a.866.866 0 0 0 .866-.866v-5.63a.867.867 0 0 0-.181-.531Z" fill="#3b63a9" fill-rule="evenodd" data-name="Path 1616"/></g></g><g data-name="Group 1266"><g data-name="Group 1265"><path d="M225.536 123.053h-3.984a.866.866 0 1 0 0 1.733h3.984a.866.866 0 1 0 0-1.733Z" fill="#3b63a9" fill-rule="evenodd" data-name="Path 1617"/></g></g><g data-name="Group 1268"><g data-name="Group 1267"><path d="M227.528 119.647h-7.39a.866.866 0 1 0 0 1.732h7.39a.866.866 0 1 0 0-1.732Z" fill="#3b63a9" fill-rule="evenodd" data-name="Path 1618"/></g></g><g data-name="Group 1270"><g data-name="Group 1269"><path d="M228.943 116.24h-7.39a.866.866 0 1 0 0 1.732h7.39a.866.866 0 1 0 0-1.732Z" fill="#3b63a9" fill-rule="evenodd" data-name="Path 1619"/></g></g></g></svg>