<svg xmlns="http://www.w3.org/2000/svg" width="19.41" height="13.457" viewBox="214.824 103.922 19.41 13.457"><g data-name="delivery"><g data-name="Group 69608"><g data-name="Group 69607"><path d="M229.483 112.486a2.45 2.45 0 0 0-2.446 2.446 2.45 2.45 0 0 0 2.446 2.447 2.45 2.45 0 0 0 2.447-2.447 2.45 2.45 0 0 0-2.447-2.446Zm0 3.67a1.225 1.225 0 0 1-1.223-1.224c0-.674.549-1.223 1.223-1.223.675 0 1.224.549 1.224 1.223 0 .675-.55 1.224-1.224 1.224Z" fill="#3b63a9" fill-rule="evenodd" data-name="Path 2827"/></g></g><g data-name="Group 69610"><g data-name="Group 69609"><path d="M221.124 112.486a2.45 2.45 0 0 0-2.447 2.446 2.45 2.45 0 0 0 2.447 2.447 2.45 2.45 0 0 0 2.447-2.447 2.45 2.45 0 0 0-2.447-2.446Zm0 3.67a1.225 1.225 0 0 1 0-2.447c.674 0 1.223.549 1.223 1.223 0 .675-.548 1.224-1.223 1.224Z" fill="#3b63a9" fill-rule="evenodd" data-name="Path 2828"/></g></g><g data-name="Group 69612"><g data-name="Group 69611"><path d="M231.13 105.483a.612.612 0 0 0-.546-.337h-3.221v1.223h2.844l1.666 3.313 1.093-.55-1.835-3.65Z" fill="#3b63a9" fill-rule="evenodd" data-name="Path 2829"/></g></g><g data-name="Group 69614"><g data-name="Group 69613"><path d="M223.02 114.341h4.628v1.224h-4.628v-1.224z" fill="#3b63a9" fill-rule="evenodd" data-name="Rectangle 519"/></g></g><g data-name="Group 69616"><g data-name="Group 69615"><path d="M219.289 114.341h-2.12a.612.612 0 1 0 0 1.223h2.12a.612.612 0 1 0 0-1.223Z" fill="#3b63a9" fill-rule="evenodd" data-name="Path 2830"/></g></g><g data-name="Group 69618"><g data-name="Group 69617"><path d="m234.105 110.602-1.203-1.55a.61.61 0 0 0-.483-.236h-4.444v-4.282a.612.612 0 0 0-.612-.612h-10.195a.612.612 0 1 0 0 1.224h9.583v4.281c0 .338.274.612.612.612h4.757l.89 1.148v3.154h-1.692a.612.612 0 1 0 0 1.223h2.304a.612.612 0 0 0 .612-.611v-3.976a.613.613 0 0 0-.129-.375Z" fill="#3b63a9" fill-rule="evenodd" data-name="Path 2831"/></g></g><g data-name="Group 69620"><g data-name="Group 69619"><path d="M219.248 111.242h-2.814a.612.612 0 1 0 0 1.223h2.814a.612.612 0 1 0 0-1.223Z" fill="#3b63a9" fill-rule="evenodd" data-name="Path 2832"/></g></g><g data-name="Group 69622"><g data-name="Group 69621"><path d="M220.655 108.836h-5.22a.612.612 0 0 0 0 1.224h5.22a.612.612 0 1 0 0-1.224Z" fill="#3b63a9" fill-rule="evenodd" data-name="Path 2833"/></g></g><g data-name="Group 69624"><g data-name="Group 69623"><path d="M221.654 106.43h-5.22a.612.612 0 1 0 0 1.224h5.22a.612.612 0 1 0 0-1.224Z" fill="#3b63a9" fill-rule="evenodd" data-name="Path 2834"/></g></g></g></svg>