<svg xmlns="http://www.w3.org/2000/svg" width="16" height="16" viewBox="217.999 152.358 16 16"><g data-name="Group 69789"><path d="M219 160.258a7 7 0 1 1 0 .1z" fill="#fff" fill-rule="evenodd" data-name="Ellipse 47"/><g data-name="pencil"><g data-name="Group 69788"><path d="M225.999 152.358a8 8 0 1 0 0 16 8 8 0 0 0 0-16Zm3.803 5.757-.76.76-1.547-1.547-.587.587 1.547 1.547-3.794 3.793-1.546-1.546-.587.587 1.547 1.546-.378.378-.008-.007a.3.3 0 0 1-.19.137l-1.443.322a.298.298 0 0 1-.277-.08.3.3 0 0 1-.08-.278l.32-1.442a.3.3 0 0 1 .138-.191l-.007-.007 6.105-6.106a.23.23 0 0 1 .324 0l1.223 1.223a.23.23 0 0 1 0 .324Z" fill="#3b63a9" fill-rule="evenodd" data-name="Path 2872"/></g></g></g></svg>