<svg width="25" height="25" viewBox="0 0 39 39" fill="none" xmlns="http://www.w3.org/2000/svg">
<path d="M28.4771 3.46229C28.9407 2.99869 29.4911 2.63094 30.0968 2.38004C30.7026 2.12914 31.3518 2 32.0074 2C32.6631 2 33.3123 2.12914 33.918 2.38004C34.5237 2.63094 35.0741 2.99869 35.5377 3.46229C36.0013 3.9259 36.3691 4.47627 36.62 5.082C36.8709 5.68773 37 6.33694 37 6.99258C37 7.64821 36.8709 8.29743 36.62 8.90315C36.3691 9.50888 36.0013 10.0593 35.5377 10.5229L11.7083 34.3523L2 37L4.64771 27.2917L28.4771 3.46229Z" stroke="#20D994" stroke-width="3" stroke-linecap="round" stroke-linejoin="round"/>
</svg>
