<svg width="200" height="201" viewBox="0 0 200 201" fill="none" xmlns="http://www.w3.org/2000/svg">
<circle cx="100" cy="46.665" r="20" fill="#20D994"/>
<path d="M199.726 195.378L183.172 155.924C183.09 155.564 182.946 155.22 182.748 154.908L159.304 99.028L159.298 99L159.278 98.968L158.1 96.162C157.35 94.3356 156.073 92.774 154.431 91.6765C152.79 90.579 150.859 89.9954 148.884 90H132.874C141.434 73.406 148.618 56.42 148.618 46.364C148.62 20.798 126.802 0 99.986 0C73.168 0 51.3521 20.798 51.3521 46.364C51.3521 56.422 58.534 73.404 67.096 90H51.0861C49.1146 89.9942 47.1862 90.5757 45.5466 91.6703C43.907 92.7649 42.6305 94.323 41.8801 96.146L29.6921 125.206C29.6361 125.304 29.5881 125.406 29.5461 125.51L0.246056 195.38C0.175804 195.565 0.122257 195.756 0.0860562 195.95C0.0740562 196.006 0.0500562 196.056 0.0400562 196.112C-0.0199438 196.492 -0.0119438 196.88 0.0600562 197.258C0.0700562 197.304 0.0540562 197.346 0.0640562 197.392C0.0740562 197.442 0.108056 197.48 0.120056 197.53C0.196056 197.82 0.312056 198.098 0.464056 198.356C0.484056 198.396 0.498056 198.438 0.524056 198.476L0.544056 198.516C0.724056 198.778 0.944056 199.016 1.19206 199.216C1.25806 199.272 1.32806 199.312 1.39606 199.36C1.60406 199.51 1.82806 199.634 2.06406 199.73C2.15206 199.766 2.23406 199.802 2.32406 199.83C2.64206 199.938 2.97406 199.994 3.30806 200L3.31606 200.002H196.652C197.202 200.003 197.743 199.868 198.228 199.608C198.712 199.349 199.125 198.974 199.43 198.516C199.734 198.058 199.92 197.533 199.972 196.985C200.024 196.438 199.939 195.885 199.726 195.378ZM58.0201 46.364C58.0201 24.476 76.844 6.666 99.986 6.666C123.126 6.666 141.952 24.476 141.952 46.364C141.952 55.668 133.916 73.888 124.332 91.91C124.302 91.974 124.262 92.026 124.236 92.092C116.42 106.772 107.592 121.3 101.228 130.746C101.081 130.936 100.893 131.09 100.678 131.196C100.462 131.302 100.225 131.357 99.985 131.357C99.7449 131.357 99.508 131.302 99.2925 131.196C99.0771 131.09 98.8887 130.936 98.742 130.746C92.38 121.3 83.552 106.774 75.734 92.092C75.708 92.026 75.668 91.972 75.638 91.908C66.054 73.888 58.0201 55.668 58.0201 46.364ZM106.706 134.526C109.495 135.44 111.851 137.348 113.326 139.886C113.11 141.086 108.95 146.666 99.986 146.666C99.376 146.666 98.766 146.634 98.296 146.614C95.9648 146.598 93.6752 145.995 91.6389 144.86C89.6027 143.725 87.8854 142.095 86.646 140.12C87.3235 138.795 88.2576 137.619 89.3942 136.659C90.5307 135.699 91.8469 134.974 93.266 134.528C94.0228 135.608 95.0287 136.489 96.1985 137.098C97.3682 137.707 98.6674 138.024 99.986 138.024C101.305 138.024 102.604 137.707 103.774 137.098C104.943 136.489 105.949 135.606 106.706 134.526ZM48.0361 98.706C48.2791 98.0978 48.7005 97.5775 49.2449 97.2133C49.7893 96.8492 50.4312 96.6584 51.0861 96.666H66.092C57.4813 101.016 49.4405 106.412 42.1521 112.732L48.0361 98.706ZM35.4741 128.612C45.9233 116.898 58.6529 107.439 72.884 100.814C78.1655 110.345 83.7347 119.714 89.584 128.908C83.724 131.638 79.984 136.358 79.984 140C79.984 144.8 86.904 152.35 97.846 153.266C98.534 153.302 99.26 153.334 99.986 153.334C112.01 153.334 119.986 145.31 119.986 140C119.986 136.358 116.246 131.638 110.386 128.908C117.083 118.386 123.41 107.633 129.354 96.668H148.884C149.487 96.6654 150.079 96.8317 150.592 97.148C151.105 97.4644 151.519 97.9182 151.788 98.458C143.343 102.385 136.204 108.655 131.22 116.522C130.418 116.175 129.511 116.158 128.697 116.476C127.882 116.794 127.227 117.422 126.873 118.221C126.519 119.02 126.495 119.927 126.806 120.744C127.118 121.561 127.74 122.221 128.536 122.582C137.932 127.09 143.318 133.438 143.318 140.002C143.318 152.238 124.826 162.69 102.038 163.304C101.356 163.338 100.644 163.328 99.762 163.334C76.392 163.274 56.6521 152.588 56.6521 140C56.6521 133.44 62.036 127.09 71.428 122.586C71.8332 122.403 72.1976 122.141 72.5 121.816C72.8024 121.49 73.0367 121.107 73.189 120.69C73.3413 120.272 73.4086 119.828 73.3869 119.384C73.3652 118.94 73.255 118.505 73.0627 118.105C72.8704 117.704 72.6 117.346 72.2672 117.051C71.9345 116.756 71.5462 116.531 71.1252 116.389C70.7042 116.246 70.259 116.19 69.8157 116.222C69.3725 116.254 68.9401 116.374 68.544 116.576C56.75 122.234 49.9841 130.772 49.9841 140.002C49.9841 150.806 59.108 160.1 73.118 165.372C57.398 178.468 23.1321 188.232 8.95006 191.862L35.4741 128.612ZM28.3221 193.332C46.2261 187.758 69.286 178.892 80.46 167.672C86.8519 169.228 93.4076 170.009 99.986 170C100.766 170 101.552 170 102.278 169.968C129.028 169.244 149.986 156.08 149.986 140C149.986 132.376 145.306 125.248 137.048 119.8C141.31 113.223 147.334 107.974 154.432 104.652L176.292 156.758C163.366 185.762 116.492 192.858 113.098 193.332H28.3201H28.3221ZM140.168 193.332C154.354 188.202 170.684 179.406 179.636 164.726L191.638 193.334L140.168 193.332Z" fill="#9D9D9D"/>
</svg>
