<svg xmlns="http://www.w3.org/2000/svg" width="21.973" height="24.6" viewBox="131.027 108.14 21.973 25.001"><g data-name="like"><g data-name="Group 69667"><g data-name="Group 69666"><path d="M152.439 123.619a2.19 2.19 0 0 0 .561-1.465 2.2 2.2 0 0 0-2.197-2.197h-4.265c.422-1.282.602-2.983.602-3.712v-.732a2.933 2.933 0 0 0-2.93-2.93h-.732a.732.732 0 0 0-.71.555l-.4 1.597c-.558 2.235-2.333 4.701-4.17 5.15a2.2 2.2 0 0 0-2.044-1.393h-4.395a.733.733 0 0 0-.732.732v13.184c0 .405.328.733.732.733h4.395a2.2 2.2 0 0 0 1.983-1.253l2.517.84a8.04 8.04 0 0 0 2.548.413h6.136a2.2 2.2 0 0 0 2.043-3.007 2.202 2.202 0 0 0 1.619-2.12 2.19 2.19 0 0 0-.561-1.465 2.19 2.19 0 0 0 0-2.93Zm-15.553 7.324a.733.733 0 0 1-.732.733h-3.662v-11.72h3.662c.404 0 .732.33.732.733v10.254Zm12.452-6.592h1.465a.733.733 0 0 1 0 1.465h-1.465a.733.733 0 0 0 0 1.465h1.465a.733.733 0 0 1 0 1.465h-1.465a.733.733 0 0 0 0 1.465.733.733 0 0 1 0 1.465h-6.136c-.71 0-1.412-.114-2.085-.339l-2.766-.921v-9.064c1.15-.218 2.274-.945 3.289-2.136.991-1.163 1.795-2.706 2.15-4.126l.26-1.041h.16c.808 0 1.466.657 1.466 1.464v.732c0 .984-.308 2.87-.702 3.712h-1.496a.733.733 0 0 0 0 1.465h7.325a.733.733 0 0 1 0 1.465h-1.465a.733.733 0 0 0 0 1.464Z" fill="#3b63a9" fill-rule="evenodd" data-name="Path 2840"/></g></g><g data-name="Group 69669"><g data-name="Group 69668"><path d="M133.922 129.44a.81.81 0 1 1 0 .1z" fill="#3b63a9" fill-rule="evenodd" data-name="Ellipse 38"/></g></g><g data-name="Group 69671"><g data-name="Group 69670"><path d="M144.943 108.14a.732.732 0 0 0-.732.733v1.513a.732.732 0 0 0 1.465 0v-1.513a.732.732 0 0 0-.733-.733Z" fill="#3b63a9" fill-rule="evenodd" data-name="Path 2841"/></g></g><g data-name="Group 69673"><g data-name="Group 69672"><path d="m141.836 111.37-1.036-1.036a.732.732 0 1 0-1.036 1.036l1.036 1.036a.732.732 0 0 0 1.036-1.036Z" fill="#3b63a9" fill-rule="evenodd" data-name="Path 2842"/></g></g><g data-name="Group 69675"><g data-name="Group 69674"><path d="M150.122 110.334a.732.732 0 0 0-1.036 0l-1.035 1.036a.732.732 0 0 0 1.035 1.036l1.036-1.036a.732.732 0 0 0 0-1.036Z" fill="#3b63a9" fill-rule="evenodd" data-name="Path 2843"/></g></g></g></svg>