<svg
  width="26"
  height="150"
  viewBox="0 0 26 140"
  fill="#3B63A9"
  xmlns="http://www.w3.org/2000/svg">
  <line
    y1="-2"
    x2="97"
    y2="-2"
    transform="matrix(4.37114e-08 1 1 -4.37114e-08 14 21)"
    stroke="#3B63A9"
    stroke-width="4"
    stroke-dasharray="16 16" />
  <ellipse
    cx="12"
    cy="11.5"
    rx="12"
    ry="11.5"
    transform="matrix(-1 0 0 1 24 0)"
    fill="#3B63A9" />
  <g clip-path="url(#clip0_0_1)">
    <g filter="url(#filter0_f_0_1)">
      <ellipse
        cx="4"
        cy="2"
        rx="4"
        ry="2"
        transform="matrix(-1 0 0 1 18 135)"
        fill="black"
        fill-opacity="0.12" />
    </g>
    <mask
      id="path-4-outside-1_0_1"
      maskUnits="userSpaceOnUse"
      x="3"
      y="109"
      width="22"
      height="28"
      fill="black">
      <rect fill="white" x="3" y="109" width="22" height="28" />
      <path
        fill-rule="evenodd"
        clip-rule="evenodd"
        d="M8.08406 128.063C5.60742 126.243 4 123.309 4 120C4 114.477 8.47715 110 14 110C19.5228 110 24 114.477 24 120C24 123.309 22.3926 126.243 19.9159 128.063C18.0339 129.481 15.381 131.718 14.7712 135.32C14.7066 135.701 14.3869 135.997 14 135.997C13.6131 135.997 13.2934 135.701 13.2288 135.32C12.619 131.718 9.96609 129.481 8.08406 128.063Z" />
    </mask>
    <path
      fill-rule="evenodd"
      clip-rule="evenodd"
      d="M8.08406 128.063C5.60742 126.243 4 123.309 4 120C4 114.477 8.47715 110 14 110C19.5228 110 24 114.477 24 120C24 123.309 22.3926 126.243 19.9159 128.063C18.0339 129.481 15.381 131.718 14.7712 135.32C14.7066 135.701 14.3869 135.997 14 135.997C13.6131 135.997 13.2934 135.701 13.2288 135.32C12.619 131.718 9.96609 129.481 8.08406 128.063Z"
      fill="#3B63A9" />
    <path
      d="M8.08406 128.063L8.67631 127.257L8.68586 127.265L8.08406 128.063ZM19.9159 128.063L19.3141 127.264L19.3237 127.257L19.9159 128.063ZM14.7712 135.32L15.7572 135.486H15.7572L14.7712 135.32ZM13.2288 135.32L12.2428 135.486H12.2428L13.2288 135.32ZM7.49186 128.869C4.76987 126.868 3 123.641 3 120H5C5 122.978 6.44497 125.618 8.67627 127.257L7.49186 128.869ZM3 120C3 113.925 7.92487 109 14 109V111C9.02944 111 5 115.029 5 120H3ZM14 109C20.0751 109 25 113.925 25 120H23C23 115.029 18.9706 111 14 111V109ZM25 120C25 123.641 23.2301 126.868 20.5081 128.869L19.3237 127.257C21.555 125.618 23 122.978 23 120H25ZM13.7853 135.153C14.4655 131.136 17.4181 128.693 19.3141 127.265L20.5177 128.862C18.6498 130.269 16.2966 132.301 15.7572 135.486L13.7853 135.153ZM14 134.997C13.9314 134.997 13.8749 135.025 13.8407 135.055C13.8088 135.084 13.7911 135.118 13.7853 135.153L15.7572 135.486C15.6191 136.302 14.9211 136.997 14 136.997V134.997ZM14.2147 135.153C14.2089 135.118 14.1912 135.084 14.1593 135.055C14.1251 135.025 14.0686 134.997 14 134.997V136.997C13.0789 136.997 12.3809 136.302 12.2428 135.486L14.2147 135.153ZM8.68586 127.265C10.5819 128.693 13.5345 131.136 14.2147 135.153L12.2428 135.486C11.7034 132.301 9.35024 130.269 7.48227 128.862L8.68586 127.265Z"
      fill="url(#paint0_linear_0_1)"
      mask="url(#path-4-outside-1_0_1)" />
  </g>
  <circle
    cx="4"
    cy="4"
    r="4"
    transform="matrix(-1 0 0 1 18 116)"
    fill="black"
    fill-opacity="0.4" />
  <defs>
    <filter
      id="filter0_f_0_1"
      x="8"
      y="133"
      width="12"
      height="8"
      filterUnits="userSpaceOnUse"
      color-interpolation-filters="sRGB">
      <feFlood flood-opacity="0" result="BackgroundImageFix" />
      <feBlend
        mode="normal"
        in="SourceGraphic"
        in2="BackgroundImageFix"
        result="shape" />
      <feGaussianBlur stdDeviation="1" result="effect1_foregroundBlur_0_1" />
    </filter>
    <linearGradient
      id="paint0_linear_0_1"
      x1="14"
      y1="110"
      x2="14"
      y2="135.997"
      gradientUnits="userSpaceOnUse">
      <stop stop-color="white" />
      <stop offset="1" stop-color="white" stop-opacity="0.35" />
    </linearGradient>
    <clipPath id="clip0_0_1">
      <rect
        width="24"
        height="32"
        fill="white"
        transform="matrix(-1 0 0 1 26 108)" />
    </clipPath>
  </defs>
</svg>
