<svg xmlns="http://www.w3.org/2000/svg" width="81.122" height="81.436" viewBox="286 270.282 81.122 81.436"><g data-name="map"><path d="m366.927 348.392-14.315-33.401a2.386 2.386 0 0 0-2.193-1.446h-47.716c-.955 0-1.817.569-2.193 1.446l-14.315 33.401c-.673 1.572.48 3.326 2.193 3.326h76.346c1.71 0 2.868-1.751 2.193-3.326Zm0 0" fill="#e0f4fe" fill-rule="evenodd" data-name="Path 61572"/><path d="M364.734 351.718h-38.173v-38.173h23.858c.955 0 1.817.57 2.193 1.446l14.315 33.401c.675 1.575-.483 3.326-2.193 3.326Zm0 0" fill="#bcdcfe" fill-rule="evenodd" data-name="Path 61573"/><path d="m296.133 338.11-1.996 3.86-2.132 4.977h28.796l3.089-.37-14.956-15.031-12.801 6.563Zm0 0" fill="#159be1" fill-rule="evenodd" data-name="Path 61574"/><path d="m356.681 337.322-.76-2.498-7.074-16.507h-8.537l-5.777.104-25.598 13.125 14.955 15.03 3.659.37h4.964l5.709-.16 18.46-9.464Zm0 0" fill="#5dc983" fill-rule="evenodd" data-name="Path 61575"/><g data-name="Group 69188"><path d="m356.681 337.322-18.46 9.465-5.708.16h-4.964l-.988-.1v-24.338l7.972-4.087 3.859-.07 1.918-.035h8.536l7.075 16.506.76 2.499Zm0 0" fill="#0eab61" fill-rule="evenodd" data-name="Path 61576"/><path d="m304.276 318.317-7.183 16.758-.96 3.034 38.4-19.688-4.695-.104h-25.562Zm0 0" fill="#0eab61" fill-rule="evenodd" data-name="Path 61577"/><path d="m334.533 318.422-7.972 4.087v-4.192h3.277l4.695.105Zm0 0" fill="#0eab61" fill-rule="evenodd" data-name="Path 61578"/></g><path d="m356.681 337.322-18.46 9.465 4.667.16h18.228l-3.31-7.725-1.125-1.9Zm0 0" fill="#159be1" fill-rule="evenodd" data-name="Path 61579"/><path d="m312.932 332.33 14.617 14.617H320.8l-12.333-12.333-14.318 7.326 2.943-6.865 32.745-16.758h10.472l-27.378 14.013Zm0 0" fill="#fed941" fill-rule="evenodd" data-name="Path 61580"/><path d="m326.561 345.959.988.988h-.988v-.988Zm0 0" fill="#feb99e" fill-rule="evenodd" data-name="Path 61581"/><path d="m340.31 318.317-2.858 1.463-10.891 5.573v-5.36l3.277-1.676h10.472Zm0 0" fill="#fcbe29" fill-rule="evenodd" data-name="Path 61582"/><path d="m357.806 339.221-14.918 7.726h-10.375l23.408-12.123 1.885 4.397Zm0 0" fill="#fcbe29" fill-rule="evenodd" data-name="Path 61583"/><path d="M326.561 270.282c-11.663 0-21.472 8.55-21.472 23.381 0 15.035 18.869 36.906 19.672 37.83a2.386 2.386 0 0 0 3.6 0c.804-.923 19.673-22.795 19.673-37.83 0-14.695-9.99-23.38-21.473-23.38Zm0 28.63c-3.947 0-7.157-3.21-7.157-7.157s3.21-7.158 7.157-7.158 7.157 3.211 7.157 7.158c0 3.946-3.21 7.157-7.157 7.157Zm0 0" fill="#ee3616" fill-rule="evenodd" data-name="Path 61584"/><path d="M326.561 270.282v14.315c3.947 0 7.157 3.212 7.157 7.158 0 3.945-3.21 7.157-7.157 7.157v33.402c.664 0 1.325-.274 1.8-.821 7.037-8.09 19.672-25.71 19.672-37.83 0-14.695-9.99-23.38-21.472-23.38Zm0 0" fill="#cb0010" fill-rule="evenodd" data-name="Path 61585"/></g></svg>