<svg xmlns="http://www.w3.org/2000/svg" width="11.572" height="9.69" viewBox="11.655 8.236 11.572 9.69"><g data-name="Layer 2"><path d="M12.377 17.926a.725.725 0 0 1-.722-.722v-5.932c.002-.824.67-1.49 1.493-1.493h7.04c.825 0 1.494.668 1.496 1.493v3.954c0 .825-.668 1.494-1.493 1.496h-5.87a.316.316 0 0 0-.186.062l-1.323.999a.73.73 0 0 1-.435.143Zm.771-7.376a.725.725 0 0 0-.721.722v5.836l1.246-.941c.187-.14.414-.215.648-.216h5.867c.4 0 .725-.325.725-.725v-3.954a.725.725 0 0 0-.722-.722h-7.043Z" fill="#3b63a9" fill-rule="evenodd" data-name="Path 1610"/><path d="M17.804 13.185a.386.386 0 1 1 0 .1z" fill="#3b63a9" fill-rule="evenodd" data-name="Ellipse 10"/><path d="M16.307 13.185a.386.386 0 1 1 0 .1z" fill="#3b63a9" fill-rule="evenodd" data-name="Ellipse 11"/><path d="M14.764 13.185a.386.386 0 1 1 0 .1z" fill="#3b63a9" fill-rule="evenodd" data-name="Ellipse 12"/><path d="M22.841 14.022a.386.386 0 0 1-.385-.386V9.73a.725.725 0 0 0-.722-.721H13.97a.386.386 0 1 1 0-.772h7.764c.824.002 1.491.67 1.493 1.493v3.907a.386.386 0 0 1-.386.386Z" fill="#3b63a9" fill-rule="evenodd" data-name="Path 1611"/></g></svg>