<svg xmlns="http://www.w3.org/2000/svg" width="23.165" height="19.397" viewBox="55.812 424.279 23.165 19.397"><g data-name="Layer 2"><path d="M57.256 443.677a1.452 1.452 0 0 1-1.444-1.444v-11.876a2.996 2.996 0 0 1 2.988-2.989h14.092a2.996 2.996 0 0 1 2.996 2.989v7.914a2.996 2.996 0 0 1-2.988 2.996H61.147a.633.633 0 0 0-.37.124l-2.649 2a1.46 1.46 0 0 1-.872.286Zm1.544-14.764a1.452 1.452 0 0 0-1.444 1.444v11.683l2.494-1.884c.375-.28.83-.43 1.297-.433h11.745c.802 0 1.452-.65 1.452-1.452v-7.914a1.452 1.452 0 0 0-1.444-1.444H58.8Z" fill="#3b63a9" fill-rule="evenodd" data-name="Path 1610"/><path d="M68.12 434.287a.772.772 0 1 1 0 .1z" fill="#3b63a9" fill-rule="evenodd" data-name="Ellipse 10"/><path d="M65.124 434.287a.772.772 0 1 1 0 .1z" fill="#3b63a9" fill-rule="evenodd" data-name="Ellipse 11"/><path d="M62.035 434.287a.772.772 0 1 1 0 .1z" fill="#3b63a9" fill-rule="evenodd" data-name="Ellipse 12"/><path d="M78.205 435.862a.772.772 0 0 1-.772-.772v-7.822a1.452 1.452 0 0 0-1.444-1.444H60.445a.772.772 0 0 1 0-1.545h15.544a2.996 2.996 0 0 1 2.988 2.989v7.822a.772.772 0 0 1-.772.772Z" fill="#3b63a9" fill-rule="evenodd" data-name="Path 1611"/></g></svg>