<svg xmlns="http://www.w3.org/2000/svg" width="24.755" height="22.439" viewBox="300 361 24.755 22.439"><g data-name="refund"><path d="M309.359 373.609h3.227a.825.825 0 0 1 .825.825.825.825 0 0 1-.825.825h-3.227a.825.825 0 0 1-.826-.825.825.825 0 0 1 .826-.825z" fill="#3b63a9" fill-rule="evenodd" data-name="Rectangle 429"/><path d="M311.557 361.086a.824.824 0 0 1 .372 1.106l-.481.97.97.482a.824.824 0 1 1-.733 1.478l-1.897-.941a.615.615 0 0 1-.278-.825l.942-1.897a.824.824 0 0 1 1.106-.373Z" fill="#3b63a9" fill-rule="evenodd" data-name="Path 2734"/><path d="M313.7 378.686H302.97a2.975 2.975 0 0 1-2.971-2.972v-6.437a2.975 2.975 0 0 1 2.971-2.972H313.7a2.975 2.975 0 0 1 2.97 2.972v6.437a2.975 2.975 0 0 1-2.97 2.972Zm-10.729-10.73c-.728 0-1.32.593-1.32 1.321v6.438c0 .728.592 1.321 1.32 1.321H313.7c.728 0 1.32-.592 1.32-1.32v-6.439c0-.727-.592-1.32-1.32-1.32H302.97Z" fill="#3b63a9" fill-rule="evenodd" data-name="Path 2735"/><path d="M300.823 369.98h15.021v1.65h-15.02v-1.65Z" fill="#3b63a9" fill-rule="evenodd" data-name="Path 2736"/><path d="M314.027 383.437a10.669 10.669 0 0 1-7.525-3.081 10.748 10.748 0 0 1-1.879-2.482l1.446-.795c.426.773.96 1.48 1.59 2.1a9.027 9.027 0 0 0 6.369 2.609c5.004 0 9.076-4.072 9.076-9.076 0-5.005-4.072-9.077-9.076-9.077-.958 0-1.901.149-2.801.44l-.51-1.569c1.066-.345 2.18-.52 3.311-.52 5.914 0 10.727 4.812 10.727 10.726 0 5.915-4.813 10.727-10.727 10.727Z" fill="#3b63a9" fill-rule="evenodd" data-name="Path 2737"/></g></svg>