<svg xmlns="http://www.w3.org/2000/svg" width="16.042" height="16.078" viewBox="321.162 562.002 16.042 16.078"><g data-name="refund"><g data-name="Group 69664"><g data-name="Group 69663"><path d="m324.42 569.805.94.134a4.374 4.374 0 0 0 4.929 4.948 4.337 4.337 0 0 0 2.882-1.694 4.374 4.374 0 0 0-.854-6.118 4.339 4.339 0 0 0-3.235-.84 4.335 4.335 0 0 0-2.6 1.355l1.188.049-.034.84-1.876-.078-.84-.035.035-.84.078-1.875.84.035-.05 1.222a5.276 5.276 0 0 1 3.128-1.613 5.282 5.282 0 0 1 3.938 1.023 5.323 5.323 0 0 1 .482 8.076 5.277 5.277 0 0 1-2.951 1.432 5.282 5.282 0 0 1-3.939-1.023 5.323 5.323 0 0 1-2.06-4.998Z" fill="#3b63a9" fill-rule="evenodd" data-name="Path 2839"/></g></g></g></svg>