<svg xmlns="http://www.w3.org/2000/svg" width="16" height="16" viewBox="322 113.95 16 16"><g data-name="图层_x0020_1"><path d="M322 121.9a8 8 0 1 1 0 .1z" fill="#006933" fill-rule="evenodd" data-name="Ellipse 36"/><path d="m327.502 125.902-2.926-3.132a1.07 1.07 0 0 1 .051-1.508 1.07 1.07 0 0 1 1.508.052l2.257 2.415 3.572-3.338a1.07 1.07 0 0 1 .1-.083l1.68-1.57a1.07 1.07 0 0 1 1.508.052 1.07 1.07 0 0 1-.051 1.508l-5.131 4.794-.006-.006-1.774 1.658-.788-.843Z" fill="#fff" fill-rule="evenodd" data-name="Path 2835"/></g></svg>