<svg width="25" height="25" viewBox="0 0 39 40" fill="none" xmlns="http://www.w3.org/2000/svg">
<path d="M19.6548 15.2381H15.7857V9.52381H9.98214V5.71429H15.7857V0H19.6548V5.71429H25.4583V9.52381H19.6548V15.2381ZM27.3929 32.381C29.5208 32.381 31.2426 34.0952 31.2426 36.1905C31.2426 38.2857 29.5208 40 27.3929 40C25.2649 40 23.5238 38.2857 23.5238 36.1905C23.5238 34.0952 25.2649 32.381 27.3929 32.381ZM8.04762 32.381C10.1756 32.381 11.8973 34.0952 11.8973 36.1905C11.8973 38.2857 10.1756 40 8.04762 40C5.91964 40 4.17857 38.2857 4.17857 36.1905C4.17857 34.0952 5.91964 32.381 8.04762 32.381ZM27.064 26.1905L27.006 25.9619L25.2649 22.8571H10.8527C9.40178 22.8571 8.125 22.0762 7.46726 20.8952L0 7.54286L3.36607 5.71429H3.38542L5.51339 9.52381L10.8527 19.0476H24.433L24.6845 18.5333L29.0179 9.52381L30.8557 5.71429L32.6741 1.90476H39V5.71429H35.131L28.1667 20.1714L30.7783 24.8381C31.0878 25.3714 31.2619 26 31.2619 26.6667C31.2619 28.7619 29.5208 30.4762 27.3929 30.4762H4.17857V26.6667H26.5804C26.8318 26.6667 27.064 26.4571 27.064 26.1905Z" fill="#20D994"/>
</svg>
