<svg xmlns="http://www.w3.org/2000/svg" width="21.913" height="23.7" viewBox="41 110.016 21.913 24.4"><path d="m59.837 120.627-.193-3.143a3.137 3.137 0 0 0-3.12-2.928h-.42v-1.419a3.12 3.12 0 0 0-3.122-3.12h-4.54a3.12 3.12 0 0 0-3.12 3.12v1.419h-.42a3.137 3.137 0 0 0-3.12 2.928l-.773 12.404a4.262 4.262 0 0 0 1.147 3.189 4.277 4.277 0 0 0 3.098 1.34h9.998c4.222 0 7.66-3.44 7.66-7.661 0-2.508-1.214-4.721-3.075-6.129Zm-12.813-7.49a1.42 1.42 0 0 1 1.419-1.419h4.54a1.42 1.42 0 0 1 1.418 1.42v1.418h-7.377v-1.419Zm-1.77 19.577a2.515 2.515 0 0 1-1.861-.806 2.54 2.54 0 0 1-.681-1.918l.771-12.404c.046-.76.659-1.34 1.42-1.34h11.62c.76 0 1.373.58 1.419 1.34l.125 2.043a7.489 7.489 0 0 0-2.815-.545c-4.222 0-7.66 3.439-7.66 7.66a7.626 7.626 0 0 0 2.86 5.958h-5.198Zm9.998 0a5.957 5.957 0 0 1-5.958-5.958 5.957 5.957 0 0 1 5.958-5.958 5.957 5.957 0 0 1 5.958 5.958 5.957 5.957 0 0 1-5.958 5.958Zm3.439-8.262c.329.329.329.874 0 1.203l-3.405 3.404a.842.842 0 0 1-.601.25.842.842 0 0 1-.602-.25l-2.27-2.27a.856.856 0 0 1 0-1.202.856.856 0 0 1 1.203 0l1.669 1.668 2.803-2.803a.856.856 0 0 1 1.203 0Z" fill="#3b63a9" fill-rule="evenodd" data-name="shopping-bag"/></svg>