<svg xmlns="http://www.w3.org/2000/svg" width="176.951" height="21.717" viewBox="99 75.59 176.951 21.717"><g data-name="Layer 1"><g data-name="Layer 2"><g data-name="Layer 1-2"><path d="M240.626 86.58c-.149 5.392-4.327 9.47-10.026 9.28-5.87-.188-9.521-3.357-9.789-9.113-.236-5.125 3.507-9.456 9.89-9.561 5.76-.096 9.763 4.156 9.925 9.394Zm-10.122 4.52c2.744.189 5.225-1.89 5.33-4.463.093-2.24-2.542-4.914-4.892-4.984-2.525-.079-5.01 2.13-5.278 4.56-.215 1.946 1.912 5.211 4.84 4.887Z" fill="#fff" fill-rule="evenodd" data-name="Path 1"/><path d="M205.92 86.62c.17 5.282-4.02 9.061-9.544 9.293-5.116.215-10.262-4.357-10.17-9.039.123-5.436 3.836-9.556 9.776-9.675 5.681-.105 10.218 3.884 9.938 9.425Zm-9.675 4.58c2.446 0 4.853-2.17 4.892-4.383.066-3.24-2.214-4.954-4.717-5.103-2.867-.166-5.252 2.262-5.186 4.91a4.68 4.68 0 0 0 5.006 4.577Z" fill="#fff" fill-rule="evenodd" data-name="Path 2"/><path d="M255.838 88.65h-3.805v-3.332c2.805 0 5.65-.022 8.49.035.242 0 .632.513.68.829a8.264 8.264 0 0 1-4.756 8.636c-5.462 2.446-12.34.048-14.129-6.142-.982-3.389.728-7.295 3.827-9.68 2.828-2.183 8.956-1.977 11.2-.162.51.408 1 .737.487 1.434-.68.925-1.372 1.85-2.051 2.762-3.551-1.916-5.226-1.877-7.225.127-1.81 1.806-2.095 3.48-.964 5.58a5.124 5.124 0 0 0 5.252 2.652c2.305-.315 2.858-.933 2.99-2.74Z" fill="#fff" fill-rule="evenodd" data-name="Path 3"/><path d="M146.45 95.304V77.787h4.703v4.725c0 1.57.645 2.096 2.262 1.798.092-.018.171-.084.259-.101.912-.136 2.293.035 2.617-.47.482-.744.224-1.976.25-2.989.022-.934 0-1.872 0-2.924h4.69v17.452h-4.686c0-1.771-.043-3.538.018-5.296.04-1.056-.364-1.359-1.394-1.363-4.002-.022-4.002-.053-4.007 3.954v2.735h-4.708Z" fill="#fff" fill-rule="evenodd" data-name="Path 4"/><path d="M114.615 77.756h11.45c0 1.144.1 2.262-.053 3.358-.057.399-.688.973-1.1 1.017a25.337 25.337 0 0 1-3.954.035c-1.727-.1-1.754-.114-1.697 1.63 0 .18.044.356.084.671 1.424 0 2.827.057 4.221-.017 1.079-.061 1.372.364 1.35 1.385-.065 2.92.264 2.516-2.568 2.543h-.987c-2.262 0-2.34.083-1.933 2.542 1.75 0 3.525.035 5.296-.017.95-.026 1.411.25 1.332 1.267-.079 1.017 0 2.038 0 3.134h-11.441V77.756Z" fill="#fff" fill-rule="evenodd" data-name="Path 5"/><path d="m170.718 84.064-4.138 4.318c-.89-.785-1.776-1.473-2.543-2.284-.228-.25-.28-1.012-.083-1.245 2.613-2.968 5.291-5.878 7.952-8.802.21-.171.43-.325.662-.46 1.828 4.357 3.608 8.605 5.572 13.278 1.24-1.21 2.262-2.1 3.156-3.108.846-.96 1.548-.829 2.332-.027.097.101.202.198.298.298 2.013 1.978 1.697 1.508.04 3.288-2.118 2.262-4.209 4.55-6.313 6.826-.315.337-.666.635-1.223 1.161l-5.712-13.238Z" fill="#fff" fill-rule="evenodd" data-name="Path 6"/><path d="M141.776 83.393c-3.507-2.384-5.712-1.71-7.553-.131-1.723 1.477-1.845 3.603-.565 5.817a4.353 4.353 0 0 0 3.888 2.262c1.473-.052 2.915-.942 4.476-1.5l2.39 3.359c-3.232 3.126-9.207 3.406-12.793.53-4.747-3.814-4.734-10.17-.64-13.988 3.214-2.994 8.974-3.218 12.393-.68.658.491 1.087 1 .307 1.824-.701.74-1.245 1.618-1.903 2.507Z" fill="#fff" fill-rule="evenodd" data-name="Path 7"/><path d="M275.95 77.72c-.846 1.605-1.516 2.938-2.227 4.24-.96 1.789-1.977 3.55-2.906 5.37-.202.46-.298.964-.28 1.469-.027 2.143 0 4.287 0 6.584h-4.77c0-1.657-.1-3.415.026-5.155.145-1.96-.535-3.573-1.52-5.208-1.356-2.262-2.517-4.612-3.924-7.229 1.863 0 3.555-.022 5.247.035.158 0 .311.495.451.776.645 1.271 1.285 2.543 2.105 4.169.613-1.285 1.13-2.262 1.552-3.288.464-1.162 1.03-1.977 2.516-1.775 1.06.153 2.152.026 3.726.026Z" fill="#fff" fill-rule="evenodd" data-name="Path 8"/><path d="M108.276 95.365h-4.774v-1.534c0-3.323-.026-6.646.013-9.969 0-1.205-.329-1.744-1.679-1.696-2.788.088-2.792.018-2.823-2.657-.062-1.836.03-1.946 1.77-1.946 3.468.035 6.936.14 10.4.132 1.09 0 1.41.403 1.332 1.411-.083.925.197 2.047-.246 2.714-.298.442-1.582.32-2.42.28-1.319-.022-1.626.544-1.6 1.784.075 3.78.027 7.562.027 11.473Z" fill="#fff" fill-rule="evenodd" data-name="Path 9"/><path d="M208.195 95.392V88.96c0-3.319.026-6.642-.018-9.964 0-.982.33-1.346 1.311-1.294 1.17.062 2.35 0 3.761 0v1.521c0 3.323.066 6.65-.035 9.965-.043 1.411.54 1.784 1.806 1.727a42.49 42.49 0 0 1 3.955.018c.346.017.955.306.977.512.105 1.118.105 2.24 0 3.358-.022.228-.697.548-1.078.566-3.49.044-6.962.026-10.68.026Z" fill="#fff" fill-rule="evenodd" data-name="Path 10"/></g></g></g></svg>