<svg xmlns="http://www.w3.org/2000/svg" width="29.8" height="25.99" viewBox="310.767 109.803 29.466 25.551"><g data-name="Layer_x0020_1"><g data-name="_553428304"><path d="M323.542 135.354c-7.046 0-12.775-5.729-12.775-12.776 0-7.046 5.729-12.775 12.775-12.775 3.548 0 6.856 1.414 9.3 4.003.124.14.11.295.031.409l.75.98c.143-.073.329-.058.442.12 1.486 2.134 2.253 4.65 2.253 7.263 0 7.047-5.729 12.776-12.776 12.776Zm0-2.637c-5.584 0-10.138-4.554-10.138-10.139 0-5.584 4.554-10.138 10.138-10.138 2.661 0 5.178 1.03 7.071 2.876.152.15.129.33.03.45l.949 1.178c.145-.085.345-.076.46.098 4.308 6.557-.368 15.675-8.51 15.675Z" fill="#3b63a9" fill-rule="evenodd" data-name="_553428040"/><path d="M323.878 129.146a.341.341 0 0 1-.311-.216c-.024-.048-2.086-5.369-5.274-7.382-.623-.384-1.102-.791-.91-1.702.191-.887.79-1.39 1.87-1.63 1.917-.407 3.978 2.565 4.745 3.787 2.684-3.907 8.053-10.043 15.867-10.762.377-.044.517.515.168.671-.12.048-11.29 5.154-15.82 17.042a.382.382 0 0 1-.335.192Z" fill="#3b63a9" fill-rule="evenodd" data-name="_553427992"/></g></g></svg>