<svg xmlns="http://www.w3.org/2000/svg" width="29.585" height="20.902" viewBox="173.505 314.235 29.585 20.802"><g data-name="crown (1)"><g data-name="Group 69586"><path d="M202.685 318.557a1.156 1.156 0 0 0-1.256-.16l-6.324 3.079-5.934-6.842a1.156 1.156 0 0 0-1.746 0l-5.934 6.842-6.324-3.08a1.156 1.156 0 0 0-1.612 1.376l4.392 14.446c.148.487.597.82 1.105.82h18.491c.509 0 .958-.333 1.106-.82l4.391-14.446a1.156 1.156 0 0 0-.355-1.215Zm-5.999 14.17H179.91l-3.372-11.092 4.74 2.307c.47.23 1.036.113 1.379-.282l5.642-6.505 5.642 6.505c.343.396.908.511 1.379.282l4.74-2.307-3.373 11.091Z" fill="#3b63a9" fill-rule="evenodd" data-name="Path 2809"/></g></g></svg>