<svg xmlns="http://www.w3.org/2000/svg" width="24.4" height="24.4" viewBox="39.3 312.437 24.4 24.4"><g data-name="application"><path d="M48.247 312.436H41.74a2.44 2.44 0 0 0-2.44 2.44v11.387a2.44 2.44 0 0 0 2.44 2.44h6.507a2.44 2.44 0 0 0 2.44-2.44v-11.387a2.44 2.44 0 0 0-2.44-2.44Zm.813 13.827c0 .45-.364.813-.813.813H41.74a.813.813 0 0 1-.813-.813v-11.387c0-.449.364-.813.813-.813h6.507c.449 0 .813.364.813.813v11.387Z" fill="#3b63a9" fill-rule="evenodd" data-name="Path 2810"/><path d="M48.247 330.33H41.74a2.44 2.44 0 0 0-2.44 2.44v1.626a2.44 2.44 0 0 0 2.44 2.44h6.507a2.44 2.44 0 0 0 2.44-2.44v-1.626a2.44 2.44 0 0 0-2.44-2.44Zm.813 4.066c0 .45-.364.814-.813.814H41.74a.813.813 0 0 1-.813-.814v-1.626c0-.45.364-.814.813-.814h6.507c.449 0 .813.365.813.814v1.626Z" fill="#3b63a9" fill-rule="evenodd" data-name="Path 2811"/><path d="M61.26 320.57h-6.507a2.44 2.44 0 0 0-2.44 2.44v11.386a2.44 2.44 0 0 0 2.44 2.44h6.507a2.44 2.44 0 0 0 2.44-2.44V323.01a2.44 2.44 0 0 0-2.44-2.44Zm.813 13.826c0 .45-.364.814-.813.814h-6.507a.813.813 0 0 1-.813-.814V323.01c0-.45.364-.814.813-.814h6.507c.45 0 .813.365.813.814v11.386Z" fill="#3b63a9" fill-rule="evenodd" data-name="Path 2812"/><path d="M61.26 312.436h-6.507a2.44 2.44 0 0 0-2.44 2.44v1.627a2.44 2.44 0 0 0 2.44 2.44h6.507a2.44 2.44 0 0 0 2.44-2.44v-1.627a2.44 2.44 0 0 0-2.44-2.44Zm.813 4.067c0 .45-.364.813-.813.813h-6.507a.813.813 0 0 1-.813-.813v-1.627c0-.449.364-.813.813-.813h6.507c.45 0 .813.364.813.813v1.627Z" fill="#3b63a9" fill-rule="evenodd" data-name="Path 2813"/></g></svg>