<svg width="25" height="25" viewBox="0 0 31 39" fill="none" xmlns="http://www.w3.org/2000/svg">
<mask id="path-1-outside-1_187_264" maskUnits="userSpaceOnUse" x="0.75" y="0.75" width="30" height="38" fill="black">
<rect fill="white" x="0.75" y="0.75" width="30" height="38"/>
<path fill-rule="evenodd" clip-rule="evenodd" d="M23.6344 26.5869C27.0398 24.0842 29.25 20.0502 29.25 15.5C29.25 7.90608 23.0939 1.75 15.5 1.75C7.90608 1.75 1.75 7.90608 1.75 15.5C1.75 20.0502 3.96019 24.0841 7.36557 26.5869C9.95335 28.5368 13.6011 31.6129 14.4396 36.5643C14.5284 37.0888 14.9681 37.4958 15.5 37.4958C16.0319 37.4958 16.4716 37.0888 16.5604 36.5643C17.3989 31.6129 21.0466 28.5368 23.6344 26.5869Z"/>
</mask>
<path fill-rule="evenodd" clip-rule="evenodd" d="M23.6344 26.5869C27.0398 24.0842 29.25 20.0502 29.25 15.5C29.25 7.90608 23.0939 1.75 15.5 1.75C7.90608 1.75 1.75 7.90608 1.75 15.5C1.75 20.0502 3.96019 24.0841 7.36557 26.5869C9.95335 28.5368 13.6011 31.6129 14.4396 36.5643C14.5284 37.0888 14.9681 37.4958 15.5 37.4958C16.0319 37.4958 16.4716 37.0888 16.5604 36.5643C17.3989 31.6129 21.0466 28.5368 23.6344 26.5869Z" fill="#20D994"/>
<path d="M23.6344 26.5869L23.0422 25.781L23.0326 25.7882L23.6344 26.5869ZM7.36557 26.5869L7.96741 25.7882L7.95777 25.7811L7.36557 26.5869ZM14.4396 36.5643L13.4536 36.7313L14.4396 36.5643ZM16.5604 36.5643L15.5745 36.3974L16.5604 36.5643ZM24.2266 27.3927C27.8774 24.7096 30.25 20.3818 30.25 15.5H28.25C28.25 19.7186 26.2023 23.4587 23.0422 25.7811L24.2266 27.3927ZM30.25 15.5C30.25 7.3538 23.6462 0.75 15.5 0.75V2.75C22.5416 2.75 28.25 8.45837 28.25 15.5H30.25ZM15.5 0.75C7.3538 0.75 0.75 7.3538 0.75 15.5H2.75C2.75 8.45837 8.45837 2.75 15.5 2.75V0.75ZM0.75 15.5C0.75 20.3818 3.12264 24.7096 6.77337 27.3927L7.95777 25.7811C4.79774 23.4587 2.75 19.7185 2.75 15.5H0.75ZM15.4255 36.3974C14.5166 31.0303 10.5692 27.7488 7.96737 25.7882L6.76377 27.3855C9.33751 29.3249 12.6855 32.1955 13.4536 36.7313L15.4255 36.3974ZM15.5 36.4958C15.4961 36.4958 15.4863 36.4957 15.4694 36.4806C15.4501 36.4634 15.4318 36.4343 15.4255 36.3974L13.4536 36.7313C13.6159 37.6896 14.4338 38.4958 15.5 38.4958V36.4958ZM15.5745 36.3974C15.5682 36.4343 15.5499 36.4634 15.5306 36.4806C15.5137 36.4957 15.5039 36.4958 15.5 36.4958V38.4958C16.5662 38.4958 17.3841 37.6896 17.5464 36.7313L15.5745 36.3974ZM23.0326 25.7882C20.4308 27.7488 16.4834 31.0303 15.5745 36.3974L17.5464 36.7313C18.3145 32.1955 21.6625 29.3249 24.2362 27.3855L23.0326 25.7882Z" fill="url(#paint0_linear_187_264)" mask="url(#path-1-outside-1_187_264)"/>
<defs>
<linearGradient id="paint0_linear_187_264" x1="15.5" y1="1.75" x2="15.5" y2="37.4958" gradientUnits="userSpaceOnUse">
<stop stop-color="white"/>
<stop offset="1" stop-color="white" stop-opacity="0.35"/>
</linearGradient>
</defs>
</svg>
