<svg xmlns="http://www.w3.org/2000/svg" width="22.163" height="22.168" viewBox="222.932 253.132 22.163 22.168"><path d="M231.322 262.324a4.596 4.596 0 1 0 0-9.192 4.596 4.596 0 0 0 0 9.192Zm0-7.57a2.974 2.974 0 1 1 0 5.948 2.974 2.974 0 0 1 0-5.948Zm-6.768 15.431c0 1.69.728 2.412 2.433 2.412h4.326a.811.811 0 1 1 0 1.622h-4.326c-2.615 0-4.055-1.433-4.055-4.034 0-2.878 1.629-6.24 6.218-6.24h4.325a6.981 6.981 0 0 1 2.449.399.811.811 0 0 1-.571 1.514 5.358 5.358 0 0 0-1.878-.29h-4.325a4.281 4.281 0 0 0-4.596 4.617Zm19.991-4.48-1.204-1.204a1.875 1.875 0 0 0-1.338-.555c-.503-.001-.985.2-1.339.557l-6.68 6.71a.806.806 0 0 0-.236.573v2.703c0 .448.363.811.81.811h2.704c.214 0 .42-.085.572-.236l6.705-6.68a1.89 1.89 0 0 0 0-2.68Zm-7.62 7.973h-1.557v-1.557l4.457-4.478 1.578 1.578-4.478 4.457Zm6.473-6.444-.846.843-1.582-1.584.843-.846c.05-.051.118-.08.19-.08.072 0 .14.03.191.08l1.205 1.204a.27.27 0 0 1-.001.383Z" fill="#3b63a9" fill-rule="evenodd" data-name="user-edit"/></svg>