<svg id="add-cart" xmlns="http://www.w3.org/2000/svg" width="27.231" height="27.226" viewBox="0 0 27.231 27.226">
  <path id="Path_45" data-name="Path 45" d="M25.5,5.538H20.966a.908.908,0,1,0,0,1.815H25.5a.908.908,0,0,1,.891,1.1l-1.906,7.3a.908.908,0,0,1-.874.683H9.886L7.75,7.353h5.955a.908.908,0,0,0,0-1.815H7.323L6.42,1.7A.908.908,0,0,0,5.538,1H1.908a.908.908,0,0,0,0,1.815h2.91L8.026,16.452a2.717,2.717,0,0,0-2.488,2.7A2.746,2.746,0,0,0,8.26,21.874H23.689a.908.908,0,0,0,0-1.815H8.26a.925.925,0,0,1-.908-.908.908.908,0,0,1,.908-.908H23.616A2.723,2.723,0,0,0,26.248,16.2L28.16,8.882A2.728,2.728,0,0,0,25.5,5.538Z" transform="translate(-1 -1)" fill="#484848"/>
  <path id="Path_46" data-name="Path 46" d="M22.723,25a2.723,2.723,0,1,0,2.723,2.723A2.723,2.723,0,0,0,22.723,25Zm0,3.63a.908.908,0,1,1,.908-.908A.908.908,0,0,1,22.723,28.63Z" transform="translate(-2.757 -3.219)" fill="#484848"/>
  <path id="Path_47" data-name="Path 47" d="M11.723,25a2.723,2.723,0,1,0,2.723,2.723A2.723,2.723,0,0,0,11.723,25Zm0,3.63a.908.908,0,1,1,.908-.908A.908.908,0,0,1,11.723,28.63Z" transform="translate(-1.74 -3.219)" fill="#484848"/>
  <path id="Path_48" data-name="Path 48" d="M18.723,4a.908.908,0,0,0-.908.908v5.07l-.266-.266a.907.907,0,1,0-1.283,1.283l1.815,1.815a.92.92,0,0,0,1.285,0l1.815-1.815A.907.907,0,1,0,19.9,9.711l-.268.266V4.908A.908.908,0,0,0,18.723,4Z" transform="translate(-2.387 -1.277)" fill="#484848"/>
</svg>
