<svg width="70" height="58" viewBox="0 0 70 58" fill="none" xmlns="http://www.w3.org/2000/svg">
<path d="M18.4766 30.2168V10.2168H19.7578V30.2168H18.4766ZM22.4844 16.4199C22.401 15.6803 22.0573 15.1074 21.4531 14.7012C20.849 14.2897 20.0885 14.084 19.1719 14.084C18.5156 14.084 17.9479 14.1882 17.4688 14.3965C16.9896 14.5996 16.6172 14.8809 16.3516 15.2402C16.0911 15.5944 15.9609 15.998 15.9609 16.4512C15.9609 16.8314 16.0495 17.1595 16.2266 17.4355C16.4089 17.7116 16.6458 17.9434 16.9375 18.1309C17.2344 18.3132 17.5521 18.4668 17.8906 18.5918C18.2292 18.7116 18.5547 18.8105 18.8672 18.8887L20.4297 19.2949C20.9401 19.4199 21.4635 19.5892 22 19.8027C22.5365 20.0163 23.0339 20.2975 23.4922 20.6465C23.9505 20.9954 24.3203 21.4277 24.6016 21.9434C24.888 22.459 25.0313 23.0762 25.0313 23.7949C25.0313 24.7012 24.7969 25.5059 24.3281 26.209C23.8646 26.9121 23.1901 27.4668 22.3047 27.873C21.4245 28.2793 20.3594 28.4824 19.1094 28.4824C17.9115 28.4824 16.875 28.2923 16 27.9121C15.125 27.5319 14.4401 26.9928 13.9453 26.2949C13.4505 25.5918 13.1771 24.7585 13.125 23.7949H15.5469C15.5938 24.373 15.7813 24.8548 16.1094 25.2402C16.4427 25.6204 16.8672 25.9043 17.3828 26.0918C17.9036 26.2741 18.474 26.3652 19.0938 26.3652C19.776 26.3652 20.3828 26.2585 20.9141 26.0449C21.4505 25.8262 21.8724 25.5241 22.1797 25.1387C22.487 24.748 22.6406 24.2923 22.6406 23.7715C22.6406 23.2975 22.5052 22.9095 22.2344 22.6074C21.9688 22.3053 21.6068 22.0553 21.1484 21.8574C20.6953 21.6595 20.1823 21.485 19.6094 21.334L17.7188 20.8184C16.4375 20.4694 15.4219 19.9564 14.6719 19.2793C13.9271 18.6022 13.5547 17.7064 13.5547 16.5918C13.5547 15.6699 13.8047 14.8652 14.3047 14.1777C14.8047 13.4902 15.4818 12.9564 16.3359 12.5762C17.1901 12.1908 18.1536 11.998 19.2266 11.998C20.3099 11.998 21.2656 12.1882 22.0938 12.5684C22.9271 12.9486 23.5833 13.472 24.0625 14.1387C24.5417 14.8001 24.7917 15.5605 24.8125 16.4199H22.4844ZM38.3558 11.998C39.0694 12.0033 39.7725 12.1335 40.4652 12.3887C41.1579 12.6439 41.7829 13.0605 42.3402 13.6387C42.9027 14.2168 43.3506 14.998 43.684 15.9824C44.0225 16.9616 44.1944 18.1803 44.1996 19.6387C44.1996 21.0397 44.059 22.2871 43.7777 23.3809C43.4965 24.4694 43.0928 25.3887 42.5668 26.1387C42.0459 26.8887 41.4131 27.459 40.6683 27.8496C39.9236 28.2402 39.085 28.4355 38.1527 28.4355C37.1996 28.4355 36.3532 28.248 35.6137 27.873C34.8741 27.498 34.2725 26.9798 33.809 26.3184C33.3454 25.6517 33.0564 24.8861 32.9418 24.0215H35.3246C35.4808 24.709 35.7986 25.2663 36.2777 25.6934C36.7621 26.1152 37.3871 26.3262 38.1527 26.3262C39.3246 26.3262 40.2387 25.8158 40.8949 24.7949C41.5512 23.7689 41.8819 22.3366 41.8871 20.498H41.7621C41.4913 20.946 41.1527 21.3314 40.7465 21.6543C40.3454 21.9772 39.8949 22.2272 39.3949 22.4043C38.8949 22.5814 38.3611 22.6699 37.7933 22.6699C36.8715 22.6699 36.0329 22.4434 35.2777 21.9902C34.5225 21.5371 33.9209 20.9147 33.473 20.123C33.0251 19.3314 32.8012 18.4277 32.8012 17.4121C32.8012 16.4017 33.0303 15.485 33.4887 14.6621C33.9522 13.8392 34.598 13.1882 35.4262 12.709C36.2595 12.2246 37.2361 11.9876 38.3558 11.998ZM38.3637 14.0293C37.7543 14.0293 37.2048 14.1803 36.7152 14.4824C36.2308 14.7793 35.848 15.1829 35.5668 15.6934C35.2855 16.1986 35.1449 16.7611 35.1449 17.3809C35.1449 18.0007 35.2803 18.5632 35.5512 19.0684C35.8272 19.5684 36.2022 19.9668 36.6762 20.2637C37.1553 20.5553 37.7022 20.7012 38.3168 20.7012C38.7751 20.7012 39.2022 20.6126 39.598 20.4355C39.9939 20.2585 40.3402 20.0137 40.6371 19.7012C40.934 19.3835 41.1657 19.0241 41.3324 18.623C41.4991 18.222 41.5824 17.8001 41.5824 17.3574C41.5824 16.7689 41.4418 16.222 41.1605 15.7168C40.8845 15.2116 40.5043 14.8053 40.0199 14.498C39.5355 14.1855 38.9834 14.0293 38.3637 14.0293Z" fill="#9D9D9D"/>
<mask id="path-2-inside-1_70_1183" fill="white">
<path d="M9.57624 41.4502H49.9282L50.9622 41.3718L69.8762 2.6337C70.2102 1.9452 69.8462 1.17655 69.0562 0.885126C68.6852 0.742273 68.2675 0.737172 67.8923 0.87091C67.5171 1.00465 67.2142 1.26663 67.0482 1.60095L48.9242 38.8018H9.30224C7.69802 38.9743 6.15702 39.4735 4.79358 40.2624C3.43013 41.0513 2.27923 42.1097 1.42624 43.359C0.366826 44.9305 -0.122956 46.7657 0.0262376 48.6047C0.394238 53.4534 5.19824 57.2419 10.9462 57.2419H52.8182C53.6702 57.2419 54.3702 56.6318 54.3702 55.8904C54.3702 55.1491 53.6702 54.5389 52.8182 54.5389H10.9442C6.80824 54.5389 3.34224 51.8359 3.09824 48.3916C3.00001 47.0823 3.35085 45.7775 4.10224 44.6577C5.25824 42.9346 7.29424 41.7416 9.57624 41.4502Z"/>
</mask>
<path d="M9.57624 41.4502H49.9282L50.9622 41.3718L69.8762 2.6337C70.2102 1.9452 69.8462 1.17655 69.0562 0.885126C68.6852 0.742273 68.2675 0.737172 67.8923 0.87091C67.5171 1.00465 67.2142 1.26663 67.0482 1.60095L48.9242 38.8018H9.30224C7.69802 38.9743 6.15702 39.4735 4.79358 40.2624C3.43013 41.0513 2.27923 42.1097 1.42624 43.359C0.366826 44.9305 -0.122956 46.7657 0.0262376 48.6047C0.394238 53.4534 5.19824 57.2419 10.9462 57.2419H52.8182C53.6702 57.2419 54.3702 56.6318 54.3702 55.8904C54.3702 55.1491 53.6702 54.5389 52.8182 54.5389H10.9442C6.80824 54.5389 3.34224 51.8359 3.09824 48.3916C3.00001 47.0823 3.35085 45.7775 4.10224 44.6577C5.25824 42.9346 7.29424 41.7416 9.57624 41.4502Z" fill="#9D9D9D"/>
<path d="M9.57624 41.4502V21.4502H8.30433L7.04266 21.6113L9.57624 41.4502ZM49.9282 41.4502V61.4502H50.6846L51.4388 61.393L49.9282 41.4502ZM50.9622 41.3718L52.4728 61.3147L63.9044 60.4488L68.9344 50.1468L50.9622 41.3718ZM69.8762 2.6337L87.8484 11.4087L87.8596 11.3859L87.8707 11.363L69.8762 2.6337ZM69.0562 0.885126L61.8711 19.5499L62.0023 19.6004L62.1343 19.6491L69.0562 0.885126ZM67.0482 1.60095L49.1348 -7.29348L49.1014 -7.22618L49.0685 -7.15864L67.0482 1.60095ZM48.9242 38.8018V58.8018H61.4277L66.9039 47.5614L48.9242 38.8018ZM9.30224 38.8018V18.8018H8.23015L7.1642 18.9164L9.30224 38.8018ZM1.42624 43.359L-15.091 32.0816L-15.1243 32.1304L-15.1573 32.1794L1.42624 43.359ZM0.0262376 48.6047L19.9689 47.0911L19.9649 47.0393L19.9607 46.9875L0.0262376 48.6047ZM3.09824 48.3916L23.0482 46.9783L23.0453 46.9369L23.0422 46.8954L3.09824 48.3916ZM4.10224 44.6577L20.7101 55.8012L20.7108 55.8003L4.10224 44.6577ZM9.57624 61.4502H49.9282V21.4502H9.57624V61.4502ZM51.4388 61.393L52.4728 61.3147L49.4517 21.429L48.4177 21.5073L51.4388 61.393ZM68.9344 50.1468L87.8484 11.4087L51.904 -6.14127L32.99 32.5969L68.9344 50.1468ZM87.8707 11.363C94.3227 -1.93718 85.6895 -14.2964 75.9782 -17.8788L62.1343 19.6491C58.1058 18.163 54.0952 15.0245 51.7898 10.1231C49.4053 5.05366 49.3713 -0.920564 51.8818 -6.09562L87.8707 11.363ZM76.2414 -17.7796C71.3985 -19.6439 66.049 -19.7048 61.1766 -17.9679L74.608 19.7097C70.486 21.1791 65.9718 21.1285 61.8711 19.5499L76.2414 -17.7796ZM61.1766 -17.9679C56.2825 -16.2232 51.7695 -12.5997 49.1348 -7.29348L84.9616 10.4954C82.6589 15.1329 78.7518 18.2325 74.608 19.7097L61.1766 -17.9679ZM49.0685 -7.15864L30.9445 30.0422L66.9039 47.5614L85.0279 10.3605L49.0685 -7.15864ZM48.9242 18.8018H9.30224V58.8018H48.9242V18.8018ZM7.1642 18.9164C2.8521 19.38 -1.38235 20.7292 -5.22291 22.9514L14.8101 57.5734C13.6964 58.2178 12.5439 58.5685 11.4403 58.6872L7.1642 18.9164ZM-5.22291 22.9514C-9.06747 25.176 -12.4797 28.257 -15.091 32.0816L17.9435 54.6365C17.0382 55.9624 15.9277 56.9267 14.8101 57.5734L-5.22291 22.9514ZM-15.1573 32.1794C-18.6782 37.402 -20.435 43.7292 -19.9083 50.2219L19.9607 46.9875C20.1891 49.8022 19.4118 52.459 18.0098 54.5387L-15.1573 32.1794ZM-19.9164 50.1183C-18.5496 68.1269 -2.27791 77.2419 10.9462 77.2419V37.2419C12.4043 37.2419 14.1737 37.7101 15.8691 39.0498C17.5846 40.4055 19.6666 43.108 19.9689 47.0911L-19.9164 50.1183ZM10.9462 77.2419H52.8182V37.2419H10.9462V77.2419ZM52.8182 77.2419C62.0346 77.2419 74.3702 70.1804 74.3702 55.8904H34.3702C34.3702 43.0831 45.3059 37.2419 52.8182 37.2419V77.2419ZM74.3702 55.8904C74.3702 41.6004 62.0345 34.5389 52.8182 34.5389V74.5389C45.306 74.5389 34.3702 68.6979 34.3702 55.8904H74.3702ZM52.8182 34.5389H10.9442V74.5389H52.8182V34.5389ZM10.9442 34.5389C13.1587 34.5389 15.6387 35.2471 17.8857 37.0051C20.1486 38.7755 22.7056 42.1414 23.0482 46.9783L-16.8518 49.8049C-15.6547 66.703 -0.408747 74.5389 10.9442 74.5389V34.5389ZM23.0422 46.8954C23.2888 50.1833 22.382 53.3095 20.7101 55.8012L-12.5056 33.5141C-15.6803 38.2456 -17.2888 43.9814 -16.8457 49.8878L23.0422 46.8954ZM20.7108 55.8003C18.278 59.4263 14.857 60.9382 12.1098 61.289L7.04266 21.6113C-0.268561 22.545 -7.76156 26.4429 -12.5063 33.5151L20.7108 55.8003Z" fill="#9D9D9D" mask="url(#path-2-inside-1_70_1183)"/>
</svg>
