<svg width="70" height="58" viewBox="0 0 70 58" fill="none" xmlns="http://www.w3.org/2000/svg">
<path d="M18.4766 30.2109V10.2109H19.7578V30.2109H18.4766ZM22.4844 16.4141C22.401 15.6745 22.0573 15.1016 21.4531 14.6953C20.849 14.2839 20.0885 14.0781 19.1719 14.0781C18.5156 14.0781 17.9479 14.1823 17.4688 14.3906C16.9896 14.5937 16.6172 14.875 16.3516 15.2344C16.0911 15.5885 15.9609 15.9922 15.9609 16.4453C15.9609 16.8255 16.0495 17.1536 16.2266 17.4297C16.4089 17.7057 16.6458 17.9375 16.9375 18.125C17.2344 18.3073 17.5521 18.4609 17.8906 18.5859C18.2292 18.7057 18.5547 18.8047 18.8672 18.8828L20.4297 19.2891C20.9401 19.4141 21.4635 19.5833 22 19.7969C22.5365 20.0104 23.0339 20.2917 23.4922 20.6406C23.9505 20.9896 24.3203 21.4219 24.6016 21.9375C24.888 22.4531 25.0313 23.0703 25.0313 23.7891C25.0313 24.6953 24.7969 25.5 24.3281 26.2031C23.8646 26.9062 23.1901 27.4609 22.3047 27.8672C21.4245 28.2734 20.3594 28.4766 19.1094 28.4766C17.9115 28.4766 16.875 28.2865 16 27.9062C15.125 27.526 14.4401 26.987 13.9453 26.2891C13.4505 25.5859 13.1771 24.7526 13.125 23.7891H15.5469C15.5938 24.3672 15.7813 24.849 16.1094 25.2344C16.4427 25.6146 16.8672 25.8984 17.3828 26.0859C17.9036 26.2682 18.474 26.3594 19.0938 26.3594C19.776 26.3594 20.3828 26.2526 20.9141 26.0391C21.4505 25.8203 21.8724 25.5182 22.1797 25.1328C22.487 24.7422 22.6406 24.2865 22.6406 23.7656C22.6406 23.2917 22.5052 22.9036 22.2344 22.6016C21.9688 22.2995 21.6068 22.0495 21.1484 21.8516C20.6953 21.6536 20.1823 21.4792 19.6094 21.3281L17.7188 20.8125C16.4375 20.4635 15.4219 19.9505 14.6719 19.2734C13.9271 18.5964 13.5547 17.7005 13.5547 16.5859C13.5547 15.6641 13.8047 14.8594 14.3047 14.1719C14.8047 13.4844 15.4818 12.9505 16.3359 12.5703C17.1901 12.1849 18.1536 11.9922 19.2266 11.9922C20.3099 11.9922 21.2656 12.1823 22.0938 12.5625C22.9271 12.9427 23.5833 13.4661 24.0625 14.1328C24.5417 14.7943 24.7917 15.5547 24.8125 16.4141H22.4844ZM38.3558 11.9922C39.0694 11.9974 39.7725 12.1276 40.4652 12.3828C41.1579 12.638 41.7829 13.0547 42.3402 13.6328C42.9027 14.2109 43.3506 14.9922 43.684 15.9766C44.0225 16.9557 44.1944 18.1745 44.1996 19.6328C44.1996 21.0339 44.059 22.2812 43.7777 23.375C43.4965 24.4635 43.0928 25.3828 42.5668 26.1328C42.0459 26.8828 41.4131 27.4531 40.6683 27.8437C39.9236 28.2344 39.085 28.4297 38.1527 28.4297C37.1996 28.4297 36.3532 28.2422 35.6137 27.8672C34.8741 27.4922 34.2725 26.974 33.809 26.3125C33.3454 25.6458 33.0564 24.8802 32.9418 24.0156H35.3246C35.4808 24.7031 35.7986 25.2604 36.2777 25.6875C36.7621 26.1094 37.3871 26.3203 38.1527 26.3203C39.3246 26.3203 40.2387 25.8099 40.8949 24.7891C41.5512 23.763 41.8819 22.3307 41.8871 20.4922H41.7621C41.4913 20.9401 41.1527 21.3255 40.7465 21.6484C40.3454 21.9714 39.8949 22.2214 39.3949 22.3984C38.8949 22.5755 38.3611 22.6641 37.7933 22.6641C36.8715 22.6641 36.0329 22.4375 35.2777 21.9844C34.5225 21.5312 33.9209 20.9089 33.473 20.1172C33.0251 19.3255 32.8012 18.4219 32.8012 17.4062C32.8012 16.3958 33.0303 15.4792 33.4887 14.6562C33.9522 13.8333 34.598 13.1823 35.4262 12.7031C36.2595 12.2187 37.2361 11.9818 38.3558 11.9922ZM38.3637 14.0234C37.7543 14.0234 37.2048 14.1745 36.7152 14.4766C36.2308 14.7734 35.848 15.1771 35.5668 15.6875C35.2855 16.1927 35.1449 16.7552 35.1449 17.375C35.1449 17.9948 35.2803 18.5573 35.5512 19.0625C35.8272 19.5625 36.2022 19.9609 36.6762 20.2578C37.1553 20.5495 37.7022 20.6953 38.3168 20.6953C38.7751 20.6953 39.2022 20.6068 39.598 20.4297C39.9939 20.2526 40.3402 20.0078 40.6371 19.6953C40.934 19.3776 41.1657 19.0182 41.3324 18.6172C41.4991 18.2161 41.5824 17.7943 41.5824 17.3516C41.5824 16.763 41.4418 16.2161 41.1605 15.7109C40.8845 15.2057 40.5043 14.7995 40.0199 14.4922C39.5355 14.1797 38.9834 14.0234 38.3637 14.0234Z" fill="#FCFCFE"/>
<mask id="path-2-inside-1_72_1826" fill="white">
<path d="M9.57624 41.4441H49.9282L50.9622 41.3657L69.8762 2.62759C70.2102 1.93909 69.8462 1.17045 69.0562 0.879023C68.6852 0.73617 68.2675 0.731068 67.8923 0.864807C67.5171 0.998545 67.2142 1.26053 67.0482 1.59484L48.9242 38.7957H9.30224C7.69802 38.9682 6.15702 39.4674 4.79358 40.2563C3.43013 41.0452 2.27923 42.1036 1.42624 43.3529C0.366826 44.9244 -0.122956 46.7596 0.0262376 48.5986C0.394238 53.4473 5.19824 57.2358 10.9462 57.2358H52.8182C53.6702 57.2358 54.3702 56.6257 54.3702 55.8843C54.3702 55.143 53.6702 54.5328 52.8182 54.5328H10.9442C6.80824 54.5328 3.34224 51.8298 3.09824 48.3855C3.00001 47.0762 3.35085 45.7714 4.10224 44.6516C5.25824 42.9285 7.29424 41.7355 9.57624 41.4441Z"/>
</mask>
<path d="M9.57624 41.4441H49.9282L50.9622 41.3657L69.8762 2.62759C70.2102 1.93909 69.8462 1.17045 69.0562 0.879023C68.6852 0.73617 68.2675 0.731068 67.8923 0.864807C67.5171 0.998545 67.2142 1.26053 67.0482 1.59484L48.9242 38.7957H9.30224C7.69802 38.9682 6.15702 39.4674 4.79358 40.2563C3.43013 41.0452 2.27923 42.1036 1.42624 43.3529C0.366826 44.9244 -0.122956 46.7596 0.0262376 48.5986C0.394238 53.4473 5.19824 57.2358 10.9462 57.2358H52.8182C53.6702 57.2358 54.3702 56.6257 54.3702 55.8843C54.3702 55.143 53.6702 54.5328 52.8182 54.5328H10.9442C6.80824 54.5328 3.34224 51.8298 3.09824 48.3855C3.00001 47.0762 3.35085 45.7714 4.10224 44.6516C5.25824 42.9285 7.29424 41.7355 9.57624 41.4441Z" fill="#9D9D9D"/>
<path d="M9.57624 41.4441V21.4441H8.30433L7.04266 21.6052L9.57624 41.4441ZM49.9282 41.4441V61.4441H50.6846L51.4388 61.3869L49.9282 41.4441ZM50.9622 41.3657L52.4728 61.3086L63.9044 60.4427L68.9344 50.1407L50.9622 41.3657ZM69.8762 2.62759L87.8484 11.4026L87.8596 11.3798L87.8707 11.3569L69.8762 2.62759ZM69.0562 0.879023L61.8711 19.5438L62.0023 19.5943L62.1343 19.643L69.0562 0.879023ZM67.0482 1.59484L49.1348 -7.29958L49.1014 -7.23228L49.0685 -7.16474L67.0482 1.59484ZM48.9242 38.7957V58.7957H61.4277L66.9039 47.5553L48.9242 38.7957ZM9.30224 38.7957V18.7957H8.23015L7.1642 18.9103L9.30224 38.7957ZM1.42624 43.3529L-15.091 32.0755L-15.1243 32.1243L-15.1573 32.1733L1.42624 43.3529ZM0.0262376 48.5986L19.9689 47.085L19.9649 47.0332L19.9607 46.9814L0.0262376 48.5986ZM3.09824 48.3855L23.0482 46.9722L23.0453 46.9308L23.0422 46.8893L3.09824 48.3855ZM4.10224 44.6516L20.7101 55.7951L20.7108 55.7942L4.10224 44.6516ZM9.57624 61.4441H49.9282V21.4441H9.57624V61.4441ZM51.4388 61.3869L52.4728 61.3086L49.4517 21.4229L48.4177 21.5012L51.4388 61.3869ZM68.9344 50.1407L87.8484 11.4026L51.904 -6.14738L32.99 32.5908L68.9344 50.1407ZM87.8707 11.3569C94.3227 -1.94329 85.6895 -14.3025 75.9782 -17.8849L62.1343 19.643C58.1058 18.1569 54.0952 15.0184 51.7898 10.117C49.4053 5.04755 49.3713 -0.926667 51.8818 -6.10172L87.8707 11.3569ZM76.2414 -17.7857C71.3985 -19.6501 66.049 -19.7109 61.1766 -17.974L74.608 19.7036C70.486 21.173 65.9718 21.1224 61.8711 19.5438L76.2414 -17.7857ZM61.1766 -17.974C56.2825 -16.2293 51.7695 -12.6058 49.1348 -7.29958L84.9616 10.4893C82.6589 15.1268 78.7518 18.2264 74.608 19.7036L61.1766 -17.974ZM49.0685 -7.16474L30.9445 30.0361L66.9039 47.5553L85.0279 10.3544L49.0685 -7.16474ZM48.9242 18.7957H9.30224V58.7957H48.9242V18.7957ZM7.1642 18.9103C2.8521 19.3739 -1.38235 20.7231 -5.22291 22.9453L14.8101 57.5673C13.6964 58.2117 12.5439 58.5624 11.4403 58.6811L7.1642 18.9103ZM-5.22291 22.9453C-9.06747 25.1699 -12.4797 28.2509 -15.091 32.0755L17.9435 54.6304C17.0382 55.9563 15.9277 56.9206 14.8101 57.5673L-5.22291 22.9453ZM-15.1573 32.1733C-18.6782 37.3959 -20.435 43.7231 -19.9083 50.2158L19.9607 46.9814C20.1891 49.7961 19.4118 52.4529 18.0098 54.5326L-15.1573 32.1733ZM-19.9164 50.1122C-18.5496 68.1208 -2.27791 77.2358 10.9462 77.2358V37.2358C12.4043 37.2358 14.1737 37.704 15.8691 39.0437C17.5846 40.3994 19.6666 43.1019 19.9689 47.085L-19.9164 50.1122ZM10.9462 77.2358H52.8182V37.2358H10.9462V77.2358ZM52.8182 77.2358C62.0346 77.2358 74.3702 70.1743 74.3702 55.8843H34.3702C34.3702 43.077 45.3059 37.2358 52.8182 37.2358V77.2358ZM74.3702 55.8843C74.3702 41.5943 62.0345 34.5328 52.8182 34.5328V74.5328C45.306 74.5328 34.3702 68.6918 34.3702 55.8843H74.3702ZM52.8182 34.5328H10.9442V74.5328H52.8182V34.5328ZM10.9442 34.5328C13.1587 34.5328 15.6387 35.241 17.8857 36.999C20.1486 38.7694 22.7056 42.1353 23.0482 46.9722L-16.8518 49.7988C-15.6547 66.6969 -0.408747 74.5328 10.9442 74.5328V34.5328ZM23.0422 46.8893C23.2888 50.1772 22.382 53.3034 20.7101 55.7951L-12.5056 33.508C-15.6803 38.2395 -17.2888 43.9753 -16.8457 49.8817L23.0422 46.8893ZM20.7108 55.7942C18.278 59.4202 14.857 60.9321 12.1098 61.2829L7.04266 21.6052C-0.268561 22.5389 -7.76156 26.4368 -12.5063 33.509L20.7108 55.7942Z" fill="#FCFCFE" mask="url(#path-2-inside-1_72_1826)"/>
</svg>
