<svg id="Layer_1" xmlns="http://www.w3.org/2000/svg" width="25" height="20" viewBox="0 0 25 20">
  <path id="Path_2754" data-name="Path 2754" d="M24.333,7.333H2.667A1.667,1.667,0,1,1,2.667,4H24.333a1.667,1.667,0,1,1,0,3.333Z" transform="translate(-1 -4)" fill="#FFFFFF"/>
  <path id="Path_2755" data-name="Path 2755" d="M24.333,27.333H2.667a1.667,1.667,0,1,1,0-3.333H24.333a1.667,1.667,0,1,1,0,3.333Z" transform="translate(-1 -7.333)" fill="#FFFFFF"/>
  <path id="Path_2756" data-name="Path 2756" d="M24.333,17.333H2.667a1.667,1.667,0,0,1,0-3.333H24.333a1.667,1.667,0,1,1,0,3.333Z" transform="translate(-1 -5.667)" fill="#FFFFFF"/>
</svg>
