<svg xmlns="http://www.w3.org/2000/svg" width="23.235" height="23.227" viewBox="0 0 23.235 23.227">
  <g id="home" transform="translate(0.5 0.727)">
    <path id="home-2" data-name="home" d="M143.241,93.541h-4.7a2.437,2.437,0,0,1-2.434-2.434V88.482a.013.013,0,0,0-.013-.012h-3.073a.013.013,0,0,0-.013.012v2.625a2.437,2.437,0,0,1-2.434,2.434h-4.7a2.437,2.437,0,0,1-2.434-2.434V82.585a3.1,3.1,0,0,1,.915-2.208l7.887-7.878a3.282,3.282,0,0,1,4.635,0l7.884,7.878a3.1,3.1,0,0,1,.915,2.208v8.522A2.437,2.437,0,0,1,143.241,93.541Zm-10.22-6.256h3.073a1.2,1.2,0,0,1,1.2,1.2v2.625a1.25,1.25,0,0,0,1.249,1.249h4.7a1.25,1.25,0,0,0,1.249-1.249V82.585a1.924,1.924,0,0,0-.567-1.37l-7.884-7.879a2.1,2.1,0,0,0-2.96,0L125.2,81.215a1.924,1.924,0,0,0-.568,1.37v8.522a1.25,1.25,0,0,0,1.249,1.249h4.7a1.25,1.25,0,0,0,1.249-1.249V88.482A1.2,1.2,0,0,1,133.021,87.285Z" transform="translate(-123.44 -71.541)" fill="#484848" stroke="#484848" stroke-width="1"/>
  </g>
</svg>

