<svg xmlns="http://www.w3.org/2000/svg" width="30.113" height="30.113" viewBox="1.276 1.278 30.113 30.113"><g data-name="g885"><g data-name="g887"><g data-name="g889" transform="translate(0 .002)" clip-path="url(&quot;#a&quot;)"><g data-name="g895"><path d="M16.332 1.276c-8.315 0-15.056 6.741-15.056 15.056 0 2.928.836 5.66 2.282 7.971L1.276 31.39l7.086-2.282a14.985 14.985 0 0 0 7.97 2.282c8.316 0 15.057-6.741 15.057-15.057 0-8.315-6.741-15.056-15.057-15.056Z" stroke-linejoin="round" stroke-linecap="round" stroke-width="2" stroke="#fff" fill="transparent" data-name="path897"/></g><g data-name="g899"><path d="M17.927 16.332a1.595 1.595 0 1 1-3.19 0 1.595 1.595 0 0 1 3.19 0" fill="#fff" fill-rule="evenodd" data-name="path901"/></g><g data-name="g903"><path d="M24.307 16.332a1.595 1.595 0 1 1-3.19 0 1.595 1.595 0 0 1 3.19 0" fill="#fff" fill-rule="evenodd" data-name="path905"/></g><g data-name="g907"><path d="M11.548 16.332a1.595 1.595 0 1 1-3.19 0 1.595 1.595 0 0 1 3.19 0" fill="#fff" fill-rule="evenodd" data-name="path909"/></g></g></g></g><defs><clipPath id="a"><path d="M0-682.665h32.665V-650H0v-32.665Z" data-name="path891" transform="translate(0 682.665)"/></clipPath></defs></svg>