<svg width="46" height="46" viewBox="0 0 46 46" fill="none" xmlns="http://www.w3.org/2000/svg">
<path fill-rule="evenodd" clip-rule="evenodd" d="M18.346 0.00634766C8.204 0.00634766 0 7.94049 0 17.7507C0 27.5609 8.204 35.4951 18.346 35.4951C21.966 35.4951 25.318 34.4678 28.16 32.7228L41.414 45.5421L46 41.1051L32.914 28.4826C35.3793 25.3552 36.7011 21.6005 36.692 17.7507C36.692 7.94049 28.488 0.00634766 18.346 0.00634766ZM18.346 4.18106C26.116 4.18106 32.376 10.2355 32.376 17.7507C32.376 25.2659 26.116 31.3203 18.346 31.3203C10.576 31.3203 4.316 25.2659 4.316 17.7507C4.316 10.2355 10.576 4.18106 18.346 4.18106Z" fill="#FCFCFE"/>
</svg>
