<svg width="46" height="46" viewBox="0 0 46 46" fill="none" xmlns="http://www.w3.org/2000/svg">
<path fill-rule="evenodd" clip-rule="evenodd" d="M18.346 0C8.204 0 0 7.93414 0 17.7444C0 27.5546 8.204 35.4887 18.346 35.4887C21.966 35.4887 25.318 34.4614 28.16 32.7165L41.414 45.5357L46 41.0987L32.914 28.4762C35.3793 25.3489 36.7011 21.5942 36.692 17.7444C36.692 7.93414 28.488 0 18.346 0ZM18.346 4.17471C26.116 4.17471 32.376 10.2291 32.376 17.7444C32.376 25.2596 26.116 31.314 18.346 31.314C10.576 31.314 4.316 25.2596 4.316 17.7444C4.316 10.2291 10.576 4.17471 18.346 4.17471Z" fill="#9D9D9D"/>
</svg>
