<svg xmlns="http://www.w3.org/2000/svg" width="23.808" height="30" viewBox="0 0 23.808 30">
  <g id="Layer_2" data-name="Layer 2" transform="translate(-4.096 -1)">
    <path id="Path_2757" data-name="Path 2757" d="M16,17.82A6,6,0,0,1,10.11,13a1.013,1.013,0,0,1,2-.32,4,4,0,0,0,7.83,0,1.013,1.013,0,0,1,2,.32A6,6,0,0,1,16,17.82Z" fill="#fff"/>
    <path id="Path_2758" data-name="Path 2758" d="M24.9,31H7.1a3,3,0,0,1-3-3.15l.81-17.24a3,3,0,0,1,3-2.87H24.09a3,3,0,0,1,3,2.87l.81,17.24a3,3,0,0,1-3,3.15ZM7.91,9.75a1,1,0,0,0-1,1L6.1,27.95A1,1,0,0,0,7.1,29H24.9a1,1,0,0,0,1-1.05l-.81-17.24a1,1,0,0,0-1-1Z" fill="#fff"/>
    <path id="Path_2759" data-name="Path 2759" d="M22,8.75H20V7a4,4,0,0,0-8,0V8.75H10V7A6,6,0,0,1,22,7Z" fill="#fff"/>
  </g>
</svg>
