<svg width="43" height="46" viewBox="0 0 43 46" fill="none" xmlns="http://www.w3.org/2000/svg">
<path d="M41 37.0077C41.0019 36.5603 40.887 36.1189 40.6648 35.7199C40.4426 35.3209 40.1195 34.9757 39.722 34.7127C34.3413 31.4465 27.9607 29.8208 21.5 30.0699C15.058 29.8167 8.69003 31.4378 3.27803 34.7109C2.8803 34.974 2.55698 35.3195 2.33477 35.7189C2.11256 36.1183 1.99782 36.56 2.00003 37.0077V44.0785H41V37.0077Z" stroke="#9D9D9D" stroke-width="3" stroke-linecap="round" stroke-linejoin="round"/>
<path d="M21.5 21.6693C27.3 21.6693 32 17.2797 32 11.8646C32 6.44946 27.3 2.05981 21.5 2.05981C15.7 2.05981 11 6.44946 11 11.8646C11 17.2797 15.7 21.6693 21.5 21.6693Z" stroke="#9D9D9D" stroke-width="3" stroke-linecap="round" stroke-linejoin="round"/>
</svg>
