<svg width="43" height="46" viewBox="0 0 43 46" fill="none" xmlns="http://www.w3.org/2000/svg">
<path d="M41 37.0016C41.0019 36.5542 40.887 36.1128 40.6648 35.7138C40.4426 35.3148 40.1195 34.9696 39.722 34.7066C34.3413 31.4404 27.9607 29.8147 21.5 30.0638C15.058 29.8106 8.69003 31.4317 3.27803 34.7048C2.8803 34.9679 2.55698 35.3134 2.33477 35.7128C2.11256 36.1122 1.99782 36.5539 2.00003 37.0016V44.0724H41V37.0016Z" stroke="#FCFCFE" stroke-width="3" stroke-linecap="round" stroke-linejoin="round"/>
<path d="M21.5 21.6631C27.3 21.6631 32 17.2734 32 11.8583C32 6.44323 27.3 2.05359 21.5 2.05359C15.7 2.05359 11 6.44323 11 11.8583C11 17.2734 15.7 21.6631 21.5 21.6631Z" stroke="#FCFCFE" stroke-width="3" stroke-linecap="round" stroke-linejoin="round"/>
</svg>
