<svg width="34" height="38" viewBox="0 0 34 38" fill="none" xmlns="http://www.w3.org/2000/svg">
<path d="M11.5 17.1665H7.83333V20.8332H11.5V17.1665ZM18.8333 17.1665H15.1667V20.8332H18.8333V17.1665ZM26.1667 17.1665H22.5V20.8332H26.1667V17.1665ZM29.8333 4.33317H28V0.666504H24.3333V4.33317H9.66667V0.666504H6V4.33317H4.16667C2.13167 4.33317 0.518333 5.98317 0.518333 7.99984L0.5 33.6665C0.5 35.6832 2.13167 37.3332 4.16667 37.3332H29.8333C31.85 37.3332 33.5 35.6832 33.5 33.6665V7.99984C33.5 5.98317 31.85 4.33317 29.8333 4.33317ZM29.8333 33.6665H4.16667V13.4998H29.8333V33.6665Z" fill="#D8D8D8"/>
</svg>
