<svg width="35" height="37" viewBox="0 0 52 37" fill="none" xmlns="http://www.w3.org/2000/svg">
<path fill-rule="evenodd" clip-rule="evenodd" d="M5.65788 0H52V31.5533H48.7246L48.9531 8.40107V8.12588C48.9531 7.14355 48.6354 6.20137 48.0696 5.50628C47.5039 4.81118 46.7365 4.41998 45.9359 4.41861H5.64941V0H5.65788ZM0 7.48723H46.3421V37H0V7.48723Z" fill="#427D2A"/>
<path fill-rule="evenodd" clip-rule="evenodd" d="M38.8138 12.0718C38.8317 13.1719 39.1928 14.2217 39.8226 15.0051C40.4523 15.7885 41.303 16.2457 42.1993 16.2827V27.9601C41.7195 27.9606 41.2446 28.0788 40.8026 28.3076C40.3606 28.5364 39.9602 28.8713 39.6252 29.2926C39.2901 29.7139 39.027 30.2131 38.8513 30.7609C38.6757 31.3087 38.591 31.894 38.6023 32.4825H7.79496C7.8089 31.346 7.45983 30.248 6.82242 29.4232C6.185 28.5984 5.30985 28.1124 4.38416 28.0691V16.3917C5.32885 16.4042 6.239 15.9564 6.91493 15.1465C7.59085 14.3366 7.97735 13.2309 7.98962 12.0718H38.8138Z" fill="#87CC71"/>
<path fill-rule="evenodd" clip-rule="evenodd" d="M17.0456 18.2664C17.7051 16.7472 18.7169 15.5022 19.9532 14.6886C21.1894 13.8751 22.5945 13.5297 23.9907 13.696C25.387 13.8623 26.7117 14.533 27.7973 15.6231C28.8829 16.7132 29.6806 18.1738 30.0897 19.8202C30.4987 21.4667 30.5006 23.2249 30.0951 24.8727C29.6897 26.5204 28.8951 27.9837 27.8118 29.0773C26.7286 30.1709 25.4053 30.8459 24.0094 31.0167C22.6135 31.1876 21.2077 30.8467 19.9697 30.0372C19.1475 29.5003 18.4195 28.7699 17.8275 27.8876C17.2355 27.0053 16.791 25.9886 16.5194 24.8954C16.2478 23.8022 16.1545 22.6541 16.2448 21.5166C16.3351 20.3792 16.6072 19.2747 17.0456 18.2664Z" fill="#427D2A"/>
<path d="M23.3679 28.7549C23.2809 28.7563 23.1945 28.7363 23.1139 28.6961C23.0333 28.6559 22.9601 28.5963 22.8985 28.5208C22.837 28.4453 22.7884 28.3554 22.7556 28.2565C22.7229 28.1576 22.7066 28.0517 22.7077 27.9449V27.1557C22.3256 27.1293 21.9476 27.0456 21.5821 26.9065C21.2997 26.7914 21.0252 26.649 20.7611 26.4807C20.6708 26.433 20.5901 26.3619 20.5243 26.2723C20.4586 26.1826 20.4094 26.0766 20.3802 25.9615C20.33 25.7441 20.3389 25.5126 20.4056 25.3021C20.4717 25.101 20.5971 24.9378 20.7569 24.8452C20.8516 24.8 20.9535 24.7822 21.0548 24.793C21.156 24.8038 21.2539 24.843 21.3408 24.9075C21.5757 25.0534 21.8207 25.1733 22.0729 25.2657C22.4472 25.3957 22.8351 25.4569 23.224 25.4475C23.5972 25.4874 23.9714 25.384 24.2946 25.1515C24.3933 25.0682 24.4739 24.9565 24.5292 24.8262C24.5846 24.6958 24.613 24.5508 24.612 24.4038C24.6138 24.2897 24.595 24.1766 24.557 24.0724C24.5189 23.9683 24.4626 23.8758 24.392 23.8015C24.1598 23.594 23.8894 23.4602 23.6048 23.4121L22.403 23.0902C21.0742 22.744 20.4099 21.8786 20.4099 20.494C20.4042 20.1403 20.4568 19.7887 20.5644 19.4604C20.672 19.1321 20.8325 18.8338 21.0362 18.5833C21.4912 18.0422 22.0785 17.6993 22.7077 17.6072V16.766C22.7062 16.6604 22.722 16.5555 22.7539 16.4574C22.7859 16.3594 22.8335 16.2701 22.8939 16.1949C22.9557 16.1183 23.0297 16.058 23.1112 16.0178C23.1927 15.9777 23.28 15.9584 23.3679 15.9612C23.4531 15.9587 23.5379 15.9783 23.6166 16.0185C23.6953 16.0588 23.7663 16.1188 23.8249 16.1949C23.8853 16.2701 23.9329 16.3594 23.9649 16.4574C23.9969 16.5555 24.0126 16.6604 24.0111 16.766V17.5708C24.2987 17.6174 24.5821 17.6973 24.8574 17.8097C25.1275 17.9175 25.3839 18.0713 25.6192 18.2666C25.6982 18.3225 25.7674 18.3972 25.8227 18.4864C25.8779 18.5755 25.918 18.6773 25.9408 18.7858C25.9795 18.9861 25.9616 19.1967 25.89 19.3829C25.8558 19.4749 25.8066 19.5574 25.7455 19.6252C25.6843 19.6931 25.6126 19.7449 25.5345 19.7775C25.435 19.8129 25.3305 19.8225 25.2277 19.8055C25.125 19.7885 25.0262 19.7454 24.9379 19.6789C24.7319 19.5545 24.5164 19.4554 24.2946 19.3829C24.0181 19.297 23.7335 19.2569 23.4483 19.2635C23.0972 19.2373 22.7486 19.3502 22.4538 19.5854C22.3419 19.6758 22.2504 19.7993 22.1875 19.9445C22.1247 20.0896 22.0926 20.2518 22.0941 20.4162C22.0916 20.5286 22.1092 20.6404 22.1458 20.7436C22.1824 20.8467 22.2369 20.9388 22.3057 21.0133C22.5272 21.2121 22.7838 21.3437 23.0547 21.3975L24.2692 21.7194C24.8452 21.833 25.3811 22.1527 25.8096 22.6384C25.9757 22.8567 26.1049 23.1131 26.1899 23.3929C26.2749 23.6728 26.3139 23.9704 26.3047 24.2688C26.314 24.6185 26.2629 24.9667 26.155 25.2906C26.0471 25.6145 25.8847 25.9068 25.6784 26.1484C25.223 26.6613 24.6524 26.9941 24.0407 27.1038V27.9449C24.0424 28.0506 24.0268 28.1556 23.9948 28.2537C23.9629 28.3518 23.9151 28.441 23.8545 28.5161C23.7961 28.5928 23.7253 28.6537 23.6466 28.6948C23.5679 28.7359 23.483 28.7564 23.3975 28.7549H23.3679Z" fill="white"/>
</svg>
