<svg width="11" height="18" viewBox="0 0 11 18" fill="none" xmlns="http://www.w3.org/2000/svg">
<path d="M5.5 0C2.46244 0 0 2.46244 0 5.5C0 8.53756 5.5 17.6 5.5 17.6C5.5 17.6 11 8.53756 11 5.5C11 2.46244 8.53756 0 5.5 0ZM5.5 1.1C6.66695 1.1 7.78611 1.56357 8.61127 2.38873C9.43643 3.21389 9.9 4.33305 9.9 5.5C9.9 6.66695 9.43643 7.78611 8.61127 8.61127C7.78611 9.43643 6.66695 9.9 5.5 9.9C4.33305 9.9 3.21389 9.43643 2.38873 8.61127C1.56357 7.78611 1.1 6.66695 1.1 5.5C1.1 4.33305 1.56357 3.21389 2.38873 2.38873C3.21389 1.56357 4.33305 1.1 5.5 1.1Z" fill="white"/>
</svg>
