<svg width="20" height="28" viewBox="0 0 25 32" fill="none" xmlns="http://www.w3.org/2000/svg">
<mask id="path-1-outside-1_94_290" maskUnits="userSpaceOnUse" x="0.25" y="0.25" width="25" height="32" fill="black">
<rect fill="white" x="0.25" y="0.25" width="25" height="32"/>
<path fill-rule="evenodd" clip-rule="evenodd" d="M19.1555 21.5711C21.9417 19.5234 23.75 16.2229 23.75 12.5C23.75 6.2868 18.7132 1.25 12.5 1.25C6.2868 1.25 1.25 6.2868 1.25 12.5C1.25 16.2229 3.05834 19.5234 5.84455 21.5711C7.96183 23.1665 10.9463 25.6833 11.6324 29.7345C11.705 30.1636 12.0648 30.4966 12.5 30.4966C12.9352 30.4966 13.295 30.1636 13.3676 29.7345C14.0537 25.6833 17.0382 23.1665 19.1555 21.5711Z"/>
</mask>
<path fill-rule="evenodd" clip-rule="evenodd" d="M19.1555 21.5711C21.9417 19.5234 23.75 16.2229 23.75 12.5C23.75 6.2868 18.7132 1.25 12.5 1.25C6.2868 1.25 1.25 6.2868 1.25 12.5C1.25 16.2229 3.05834 19.5234 5.84455 21.5711C7.96183 23.1665 10.9463 25.6833 11.6324 29.7345C11.705 30.1636 12.0648 30.4966 12.5 30.4966C12.9352 30.4966 13.295 30.1636 13.3676 29.7345C14.0537 25.6833 17.0382 23.1665 19.1555 21.5711Z" fill="#20D994"/>
<path d="M19.1555 21.5711L18.5632 20.7652L18.5537 20.7724L19.1555 21.5711ZM5.84455 21.5711L6.44639 20.7724L6.43675 20.7653L5.84455 21.5711ZM11.6324 29.7345L12.6183 29.5675V29.5675L11.6324 29.7345ZM13.3676 29.7345L12.3817 29.5675V29.5675L13.3676 29.7345ZM19.7477 22.3769C22.7792 20.1489 24.75 16.5545 24.75 12.5H22.75C22.75 15.8912 21.1041 18.8979 18.5632 20.7653L19.7477 22.3769ZM24.75 12.5C24.75 5.73451 19.2655 0.25 12.5 0.25V2.25C18.1609 2.25 22.75 6.83908 22.75 12.5H24.75ZM12.5 0.25C5.73451 0.25 0.25 5.73451 0.25 12.5H2.25C2.25 6.83908 6.83908 2.25 12.5 2.25V0.25ZM0.25 12.5C0.25 16.5545 2.22079 20.1489 5.25235 22.3769L6.43675 20.7653C3.89589 18.8979 2.25 15.8912 2.25 12.5H0.25ZM12.6183 29.5675C11.8619 25.1007 8.57767 22.3784 6.44635 20.7724L5.24275 22.3697C7.34598 23.9545 10.0308 26.2659 10.6464 29.9014L12.6183 29.5675ZM12.5 29.4966C12.5444 29.4966 12.5789 29.515 12.596 29.5303C12.6108 29.5435 12.6165 29.5568 12.6183 29.5675L10.6464 29.9014C10.7925 30.7644 11.5306 31.4966 12.5 31.4966V29.4966ZM12.3817 29.5675C12.3835 29.5568 12.3892 29.5435 12.404 29.5303C12.4211 29.515 12.4556 29.4966 12.5 29.4966V31.4966C13.4694 31.4966 14.2075 30.7644 14.3536 29.9014L12.3817 29.5675ZM18.5537 20.7724C16.4223 22.3784 13.1381 25.1007 12.3817 29.5675L14.3536 29.9014C14.9692 26.2659 17.654 23.9545 19.7572 22.3697L18.5537 20.7724Z" fill="url(#paint0_linear_94_290)" mask="url(#path-1-outside-1_94_290)"/>
<defs>
<linearGradient id="paint0_linear_94_290" x1="12.5" y1="1.25" x2="12.5" y2="30.4966" gradientUnits="userSpaceOnUse">
<stop stop-color="white"/>
<stop offset="1" stop-color="white" stop-opacity="0.35"/>
</linearGradient>
</defs>
</svg>
