<svg width="35" height="28" viewBox="0 0 44 28" fill="none" xmlns="http://www.w3.org/2000/svg">
<path d="M30 0C28.1615 -2.73959e-08 26.341 0.36212 24.6424 1.06569C22.9439 1.76925 21.4005 2.80048 20.1005 4.1005C18.8005 5.40053 17.7693 6.94387 17.0657 8.64243C16.3621 10.341 16 12.1615 16 14C16 15.8385 16.3621 17.659 17.0657 19.3576C17.7693 21.0561 18.8005 22.5995 20.1005 23.8995C21.4005 25.1995 22.9439 26.2307 24.6424 26.9343C26.341 27.6379 28.1615 28 30 28C31.8385 28 33.659 27.6379 35.3576 26.9343C37.0561 26.2307 38.5995 25.1995 39.8995 23.8995C41.1995 22.5995 42.2307 21.0561 42.9343 19.3576C43.6379 17.659 44 15.8385 44 14C44 12.1615 43.6379 10.341 42.9343 8.64243C42.2307 6.94387 41.1995 5.40053 39.8995 4.1005C38.5995 2.80048 37.0561 1.76925 35.3576 1.06569C33.659 0.36212 31.8385 -2.73959e-08 30 0Z" fill="#FF9800"/>
<path d="M14 0C12.1615 -2.73959e-08 10.341 0.36212 8.64243 1.06569C6.94387 1.76925 5.40053 2.80048 4.1005 4.1005C2.80048 5.40053 1.76925 6.94387 1.06569 8.64243C0.362121 10.341 0 12.1615 0 14C0 15.8385 0.362121 17.659 1.06569 19.3576C1.76925 21.0561 2.80048 22.5995 4.1005 23.8995C5.40053 25.1995 6.94387 26.2307 8.64243 26.9343C10.341 27.6379 12.1615 28 14 28C15.8385 28 17.659 27.6379 19.3576 26.9343C21.0561 26.2307 22.5995 25.1995 23.8995 23.8995C25.1995 22.5995 26.2307 21.0561 26.9343 19.3576C27.6379 17.659 28 15.8385 28 14C28 12.1615 27.6379 10.341 26.9343 8.64243C26.2307 6.94387 25.1995 5.40053 23.8995 4.1005C22.5995 2.80048 21.0561 1.76925 19.3576 1.06569C17.659 0.36212 15.8385 -2.73959e-08 14 0Z" fill="#D50000"/>
</svg>
