<svg width="14" height="14" viewBox="0 0 14 14" fill="none" xmlns="http://www.w3.org/2000/svg">
<path d="M7.53846 6.46154H13.4615C13.7589 6.46154 14 6.70262 14 7C14 7.29738 13.7589 7.53846 13.4615 7.53846H7.53846V13.4615C7.53846 13.7589 7.29738 14 7 14C6.70262 14 6.46154 13.7589 6.46154 13.4615V7.53846H0.538462C0.241077 7.53846 0 7.29738 0 7C0 6.70262 0.241077 6.46154 0.538462 6.46154H6.46154V0.538462C6.46154 0.241077 6.70262 0 7 0C7.29738 0 7.53846 0.241077 7.53846 0.538462V6.46154Z" fill="black"/>
</svg>

