<svg width="35" height="16" viewBox="0 0 48 16" fill="none" xmlns="http://www.w3.org/2000/svg">
<path d="M20.8085 15.3127H16.8918L19.3396 0.268813H23.2567L20.8085 15.3127ZM13.5968 0.268813L9.86278 10.6161L9.42093 8.38793L9.42133 8.38873L8.10342 1.62334C8.10342 1.62334 7.94407 0.268813 6.24547 0.268813H0.0724347L0 0.523541C0 0.523541 1.88773 0.916297 4.09698 2.24306L7.4998 15.3131H11.5807L17.8121 0.268813H13.5968ZM44.4036 15.3127H48L44.8644 0.26841H41.7159C40.262 0.26841 39.9079 1.38954 39.9079 1.38954L34.0664 15.3127H38.1493L38.9658 13.0781H43.9449L44.4036 15.3127ZM40.0938 9.99115L42.1517 4.36137L43.3095 9.99115H40.0938ZM34.3726 3.88652L34.9316 0.655935C34.9316 0.655935 33.2068 0 31.4089 0C29.4652 0 24.8495 0.849497 24.8495 4.98028C24.8495 8.8668 30.2668 8.91509 30.2668 10.9565C30.2668 12.998 25.4076 12.6322 23.804 11.3449L23.2217 14.7227C23.2217 14.7227 24.9706 15.5722 27.6427 15.5722C30.3155 15.5722 34.3477 14.1883 34.3477 10.4217C34.3477 6.51026 28.8817 6.14608 28.8817 4.44547C28.8821 2.74447 32.6966 2.96298 34.3726 3.88652Z" fill="#2566AF"/>
</svg>
