<svg width="30" height="30" viewBox="0 0 30 30" fill="none" xmlns="http://www.w3.org/2000/svg">
<path d="M21.6687 3.08627C22.0131 2.74188 22.422 2.4687 22.8719 2.28231C23.3219 2.09593 23.8042 2 24.2912 2C24.7783 2 25.2605 2.09593 25.7105 2.28231C26.1605 2.4687 26.5693 2.74188 26.9137 3.08627C27.2581 3.43067 27.5313 3.83952 27.7177 4.28949C27.9041 4.73945 28 5.22173 28 5.70877C28 6.19581 27.9041 6.67809 27.7177 7.12806C27.5313 7.57803 27.2581 7.98688 26.9137 8.33127L9.21187 26.0331L2 28L3.96687 20.7881L21.6687 3.08627Z" stroke="#9D9D9D" stroke-width="3" stroke-linecap="round" stroke-linejoin="round"/>
</svg>
